<?xml version="1.0" encoding="utf-8"?>
<!-- Generator: Adobe Illustrator 19.2.1, SVG Export Plug-In . SVG Version: 6.00 Build 0)  -->
<svg version="1.1" xmlns="http://www.w3.org/2000/svg" xmlns:xlink="http://www.w3.org/1999/xlink" x="0px" y="0px"
	 viewBox="0 0 960 560" style="enable-background:new 0 0 960 560;" xml:space="preserve">
<style type="text/css">
	.st0{clip-path:url(#SVGID_2_);fill:none;}
	.st1{fill:none;stroke:#231F20;stroke-linecap:round;stroke-miterlimit:10;}
	.st2{fill:#E6E7E8;stroke:#231F20;stroke-linecap:round;stroke-miterlimit:10;}
	.st3{fill:none;stroke:#000000;stroke-miterlimit:10;}
	.st4{fill:none;}
</style>
<g id="Layer_2">
	<ellipse class="st1" cx="629" cy="38.5" rx="31.8" ry="33.3"/>
	<circle class="st1" cx="209.7" cy="120" r="22.5"/>
	<line class="st2" x1="201.7" y1="157.3" x2="189.3" y2="385.2"/>
	<line class="st2" x1="218.6" y1="156.7" x2="217.3" y2="296.2"/>
	<line class="st2" x1="306.5" y1="366" x2="437.4" y2="378.6"/>
	<line class="st2" x1="306.5" y1="315" x2="306.5" y2="366"/>
	<line class="st2" x1="176.6" y1="421" x2="645.5" y2="507.5"/>
	<line class="st2" x1="446.5" y1="419" x2="479" y2="423.7"/>
	<line class="st2" x1="303.5" y1="399.7" x2="437.5" y2="418"/>
	<line class="st2" x1="205" y1="386" x2="297.5" y2="398.8"/>
	<line class="st2" x1="297.5" y1="399" x2="297.5" y2="436"/>
	<line class="st2" x1="297.5" y1="314" x2="297.5" y2="399"/>
	<line class="st2" x1="199.5" y1="386" x2="197.3" y2="424.8"/>
	<line class="st2" x1="186.6" y1="385" x2="184.5" y2="422"/>
	<line class="st2" x1="186.6" y1="385" x2="201.5" y2="386"/>
	<line class="st2" x1="203" y1="418.5" x2="615.5" y2="498.5"/>
	<line class="st2" x1="446.5" y1="431" x2="616.5" y2="457.4"/>
	<line class="st2" x1="303.5" y1="408.7" x2="437.4" y2="429.2"/>
	<line class="st2" x1="205.3" y1="393.4" x2="297.5" y2="407.7"/>
	<line class="st2" x1="171.3" y1="423.3" x2="644.9" y2="517.5"/>
	<line class="st2" x1="617" y1="439.5" x2="615.5" y2="498.5"/>
	<line class="st2" x1="615.5" y1="498.5" x2="645.3" y2="503.7"/>
	<line class="st2" x1="617.5" y1="98" x2="617.5" y2="440"/>
	<line class="st2" x1="629.8" y1="94.9" x2="633.5" y2="447.1"/>
	<line class="st2" x1="446.5" y1="431" x2="446.5" y2="465"/>
	<line class="st2" x1="446.5" y1="419" x2="446.5" y2="431"/>
	<line class="st2" x1="446.5" y1="321" x2="446.5" y2="419"/>
	<line class="st2" x1="437.5" y1="430" x2="437.5" y2="464"/>
	<line class="st2" x1="437.5" y1="418" x2="437.5" y2="430"/>
	<line class="st2" x1="437.5" y1="320" x2="437.5" y2="418"/>
	<line class="st2" x1="207" y1="300.7" x2="617.5" y2="313.6"/>
	<line class="st2" x1="306.5" y1="322.9" x2="437.5" y2="330.9"/>
	<line class="st2" x1="645.5" y1="507.5" x2="791" y2="445.3"/>
	<line class="st2" x1="646.2" y1="549.5" x2="794" y2="469"/>
	<line class="st2" x1="644.5" y1="508.5" x2="646.2" y2="549.5"/>
	<line class="st2" x1="782.5" y1="296.5" x2="790.5" y2="445"/>
	<line class="st2" x1="649.4" y1="310.6" x2="773.8" y2="305.4"/>
	<line class="st2" x1="660.5" y1="330" x2="663.9" y2="436.2"/>
	<line class="st2" x1="653.6" y1="439.4" x2="756.1" y2="406.8"/>
	<line class="st2" x1="660.7" y1="336" x2="754.7" y2="328.2"/>
	<line class="st2" x1="754.4" y1="319.5" x2="756.1" y2="406.8"/>
	<line class="st2" x1="642.3" y1="94" x2="653.6" y2="439.4"/>
	<line class="st2" x1="216.1" y1="311.2" x2="210.5" y2="386.8"/>
	<line class="st2" x1="218.6" y1="311.2" x2="214.8" y2="387"/>
	<line class="st2" x1="230.3" y1="311.3" x2="226.8" y2="388.5"/>
	<line class="st2" x1="234.6" y1="311.8" x2="230.6" y2="388.8"/>
	<line class="st2" x1="247.1" y1="312" x2="243.5" y2="391.3"/>
	<line class="st2" x1="248.5" y1="313" x2="248.5" y2="392"/>
	<line class="st2" x1="263.1" y1="313.8" x2="260.3" y2="393.4"/>
	<line class="st2" x1="266.5" y1="313.8" x2="263.3" y2="394.1"/>
	<line class="st2" x1="280.4" y1="313.6" x2="276.9" y2="395.5"/>
	<line class="st2" x1="282.5" y1="314" x2="282.5" y2="395"/>
	<line class="st2" x1="310.5" y1="370" x2="310.5" y2="401"/>
	<line class="st2" x1="314.5" y1="371" x2="314.5" y2="401"/>
	<line class="st2" x1="330.5" y1="373" x2="330.5" y2="403"/>
	<line class="st2" x1="333.5" y1="374" x2="333.5" y2="403"/>
	<line class="st2" x1="350.5" y1="375" x2="349.5" y2="405.2"/>
	<line class="st2" x1="353.4" y1="375.6" x2="352.2" y2="406"/>
	<line class="st2" x1="370.5" y1="377" x2="370.5" y2="409"/>
	<line class="st2" x1="374.5" y1="378" x2="374.5" y2="409"/>
	<line class="st2" x1="393.5" y1="379" x2="393.5" y2="412"/>
	<line class="st2" x1="396.5" y1="379" x2="396.5" y2="413"/>
	<line class="st2" x1="415.2" y1="381.4" x2="414.4" y2="415"/>
	<line class="st2" x1="419.4" y1="381.8" x2="419.1" y2="415.7"/>
	<line class="st2" x1="303.5" y1="369.7" x2="339.7" y2="373.5"/>
	<line class="st2" x1="337.3" y1="373.3" x2="437.2" y2="383.7"/>
	<line class="st2" x1="450.5" y1="321" x2="450.5" y2="420"/>
	<line class="st2" x1="458.5" y1="321" x2="458.5" y2="421"/>
	<line class="st2" x1="462.5" y1="321" x2="462.5" y2="421"/>
	<line class="st2" x1="483.5" y1="322" x2="483.5" y2="425"/>
	<line class="st2" x1="489.5" y1="323" x2="489.5" y2="425"/>
	<line class="st2" x1="511.5" y1="323" x2="511.5" y2="428"/>
	<line class="st2" x1="514.5" y1="324" x2="514.5" y2="429"/>
	<line class="st2" x1="539.5" y1="325" x2="539.5" y2="432"/>
	<line class="st2" x1="543.5" y1="325" x2="543.5" y2="433"/>
	<line class="st2" x1="570.5" y1="325.7" x2="570.1" y2="437"/>
	<line class="st2" x1="574.5" y1="326" x2="574.5" y2="438"/>
	<line class="st2" x1="602.5" y1="328" x2="602.5" y2="442"/>
	<line class="st2" x1="606.5" y1="328" x2="606.5" y2="443"/>
	<line class="st2" x1="656.5" y1="329" x2="659.4" y2="436.7"/>
	<g id="XMLID_4_">
		<g>
		</g>
		<g>
			<line class="st1" x1="212" y1="295.9" x2="210.3" y2="298.9"/>
		</g>
	</g>
	<line class="st2" x1="212.2" y1="295.9" x2="215.2" y2="299.6"/>
	<line class="st2" x1="214.7" y1="299.3" x2="217.8" y2="296.5"/>
	<line class="st2" x1="217.3" y1="296.2" x2="220.2" y2="299.1"/>
	<line class="st2" x1="219.6" y1="299" x2="221.5" y2="296.8"/>
	<line class="st2" x1="221.9" y1="296.7" x2="224.5" y2="298.8"/>
	<line class="st2" x1="224.3" y1="298.7" x2="226.6" y2="296.8"/>
	<line class="st2" x1="226.2" y1="296.7" x2="228.9" y2="298.9"/>
	<line class="st2" x1="231.5" y1="297.2" x2="233.9" y2="299.1"/>
	<line class="st2" x1="228.6" y1="298.6" x2="231.5" y2="296.7"/>
	<line class="st2" x1="233.8" y1="299.1" x2="236.7" y2="297.1"/>
	<line class="st2" x1="236.2" y1="297.1" x2="238.9" y2="299.8"/>
	<line class="st2" x1="238.9" y1="299.8" x2="240.7" y2="297.3"/>
	<line class="st2" x1="240.8" y1="297" x2="243.4" y2="299.6"/>
	<line class="st2" x1="243.4" y1="299.6" x2="246.3" y2="297"/>
	<line class="st2" x1="246.3" y1="297.2" x2="249.1" y2="300.6"/>
	<line class="st2" x1="249" y1="300.1" x2="251.1" y2="297.2"/>
	<line class="st2" x1="250.8" y1="297.3" x2="252.8" y2="300.2"/>
	<line class="st2" x1="253.4" y1="300.2" x2="255.9" y2="297.4"/>
	<line class="st2" x1="256.5" y1="297.8" x2="258.3" y2="299.6"/>
	<line class="st2" x1="258.4" y1="300.2" x2="261.4" y2="297.8"/>
	<line class="st2" x1="261.3" y1="297.6" x2="263.7" y2="300"/>
	<line class="st2" x1="264.5" y1="300.4" x2="267" y2="298"/>
	<line class="st2" x1="266.8" y1="297.8" x2="268.8" y2="300.5"/>
	<line class="st2" x1="269.1" y1="300.6" x2="271.8" y2="297.9"/>
	<line class="st2" x1="271.8" y1="297.9" x2="274.2" y2="300.6"/>
	<line class="st2" x1="274.6" y1="300.8" x2="277.7" y2="298.1"/>
	<line class="st2" x1="277.7" y1="297.9" x2="280.8" y2="300.2"/>
	<line class="st2" x1="280.6" y1="300.9" x2="283.7" y2="297.8"/>
	<line class="st2" x1="283.6" y1="297.8" x2="285.7" y2="300.3"/>
	<line class="st2" x1="285.5" y1="301.3" x2="288.8" y2="298.5"/>
	<line class="st2" x1="288.4" y1="298.2" x2="291.8" y2="300.6"/>
	<line class="st2" x1="291.1" y1="300.9" x2="294.1" y2="298.2"/>
	<line class="st2" x1="294.6" y1="298.3" x2="296.2" y2="300.9"/>
	<line class="st2" x1="296.4" y1="301.4" x2="299.5" y2="298.6"/>
	<line class="st2" x1="299.6" y1="298.7" x2="302.3" y2="300.3"/>
	<line class="st2" x1="301.5" y1="301.6" x2="304.4" y2="298.7"/>
	<line class="st2" x1="304.8" y1="298.8" x2="307.4" y2="301"/>
	<line class="st2" x1="307.2" y1="301.4" x2="310.1" y2="298.8"/>
	<line class="st2" x1="310.2" y1="298.9" x2="313.5" y2="301.8"/>
	<line class="st2" x1="312.9" y1="302.2" x2="316" y2="299.1"/>
	<line class="st2" x1="316.1" y1="299.8" x2="319" y2="301.3"/>
	<line class="st2" x1="318.7" y1="302.4" x2="321.4" y2="299.7"/>
	<line class="st2" x1="321.5" y1="299.6" x2="325.4" y2="301.8"/>
	<line class="st2" x1="325" y1="302.5" x2="327.9" y2="299.6"/>
	<line class="st2" x1="327.8" y1="299.7" x2="331.1" y2="303"/>
	<line class="st2" x1="334.5" y1="299.6" x2="336.9" y2="302.1"/>
	<line class="st2" x1="337" y1="302.8" x2="339.5" y2="300.7"/>
	<line class="st2" x1="339.5" y1="300.7" x2="342.7" y2="302.9"/>
	<line class="st2" x1="346.1" y1="300.3" x2="349.3" y2="302.6"/>
	<line class="st2" x1="349.5" y1="302.8" x2="352.7" y2="300.2"/>
	<line class="st2" x1="352.4" y1="300.1" x2="354.8" y2="302.6"/>
	<line class="st2" x1="355.5" y1="304.1" x2="357.8" y2="301.2"/>
	<line class="st2" x1="354" y1="301.8" x2="356" y2="303.4"/>
	<line class="st2" x1="357.8" y1="301.2" x2="360.5" y2="303.9"/>
	<line class="st2" x1="360.9" y1="304.4" x2="364.6" y2="300.7"/>
	<line class="st2" x1="364.3" y1="300.7" x2="367.6" y2="304"/>
	<line class="st2" x1="367.9" y1="304.7" x2="371.6" y2="301"/>
	<line class="st2" x1="371.2" y1="301.6" x2="374.5" y2="304"/>
	<line class="st2" x1="377.2" y1="301.3" x2="380.3" y2="304.2"/>
	<line class="st2" x1="380.2" y1="304.2" x2="385.1" y2="301.2"/>
	<line class="st2" x1="384.7" y1="301" x2="388.3" y2="304"/>
	<line class="st2" x1="389.2" y1="303.7" x2="392.2" y2="301.2"/>
	<line class="st2" x1="391.9" y1="301" x2="395.3" y2="303.8"/>
	<line class="st2" x1="396" y1="304.5" x2="399" y2="301.5"/>
	<line class="st2" x1="399.1" y1="301.6" x2="401.7" y2="304.8"/>
	<line class="st2" x1="402.5" y1="305" x2="407" y2="301.8"/>
	<line class="st2" x1="412.9" y1="301.7" x2="415.7" y2="305.4"/>
	<line class="st2" x1="412.2" y1="301.8" x2="408.7" y2="304.8"/>
	<line class="st2" x1="407" y1="301.8" x2="410" y2="305.2"/>
	<line class="st2" x1="415.3" y1="306.1" x2="419.8" y2="302.2"/>
	<line class="st2" x1="420.4" y1="301.9" x2="422.8" y2="305.1"/>
	<g id="XMLID_6_">
		<g>
		</g>
		<g>
			<line class="st1" x1="423.2" y1="305.7" x2="427.2" y2="302.6"/>
		</g>
	</g>
	<line class="st2" x1="431.1" y1="305.2" x2="433.9" y2="301.9"/>
	<line class="st2" x1="434" y1="302" x2="438.1" y2="305.4"/>
	<line class="st2" x1="437.7" y1="305.8" x2="442.8" y2="302.2"/>
	<line class="st2" x1="442.1" y1="302.1" x2="445.1" y2="305.2"/>
	<line class="st2" x1="445.6" y1="305.8" x2="449.2" y2="302.1"/>
	<line class="st2" x1="448.8" y1="302.1" x2="452.3" y2="305.1"/>
	<line class="st2" x1="427.1" y1="302.6" x2="431.1" y2="305.2"/>
	<line class="st2" x1="453.6" y1="305.6" x2="457.6" y2="302"/>
	<line class="st2" x1="457.2" y1="302" x2="460.9" y2="305.2"/>
	<line class="st2" x1="462.2" y1="305.6" x2="465" y2="302.3"/>
	<line class="st2" x1="464.7" y1="302.9" x2="468.8" y2="305.7"/>
	<line class="st2" x1="469.3" y1="306.1" x2="472.6" y2="302.4"/>
	<line class="st2" x1="473.2" y1="302.7" x2="476.4" y2="306.7"/>
	<line class="st2" x1="477" y1="306.7" x2="480.6" y2="302.7"/>
	<line class="st2" x1="480.8" y1="302.5" x2="484.5" y2="306.2"/>
	<line class="st2" x1="488.8" y1="302.9" x2="492.1" y2="306.7"/>
	<line class="st2" x1="485.4" y1="307.2" x2="488.7" y2="302.7"/>
	<line class="st2" x1="492" y1="307.2" x2="497.4" y2="302.8"/>
	<line class="st2" x1="497.2" y1="302.9" x2="501.2" y2="306.8"/>
	<line class="st2" x1="501.9" y1="307.2" x2="505.8" y2="303.4"/>
	<line class="st2" x1="505.6" y1="303.4" x2="510.2" y2="307.2"/>
	<line class="st2" x1="510.8" y1="307.5" x2="514.9" y2="303.4"/>
	<line class="st2" x1="514.7" y1="303.3" x2="519" y2="307.2"/>
	<line class="st2" x1="519.5" y1="307.4" x2="522.7" y2="304.2"/>
	<line class="st2" x1="523.4" y1="304.1" x2="527.7" y2="307.7"/>
	<line class="st2" x1="528.6" y1="307.9" x2="532.8" y2="303.6"/>
	<line class="st2" x1="532.7" y1="303.9" x2="537.2" y2="308.3"/>
	<line class="st2" x1="537.2" y1="308.3" x2="540.8" y2="304.2"/>
	<line class="st2" x1="546.3" y1="308.7" x2="550.3" y2="304.6"/>
	<line class="st2" x1="541.2" y1="304.2" x2="546" y2="308.2"/>
	<line class="st2" x1="550.5" y1="304.8" x2="553.8" y2="308.7"/>
	<line class="st2" x1="553.8" y1="308.7" x2="559.2" y2="304.9"/>
	<line class="st2" x1="559.4" y1="304.6" x2="564.6" y2="308.7"/>
	<line class="st2" x1="564.6" y1="308.7" x2="569" y2="305"/>
	<line class="st2" x1="568.6" y1="304.6" x2="574.7" y2="309"/>
	<line class="st2" x1="574.7" y1="309" x2="579.1" y2="304.2"/>
	<line class="st2" x1="578.7" y1="304.1" x2="584.1" y2="309.1"/>
	<line class="st2" x1="584.1" y1="309.1" x2="588.8" y2="305"/>
	<line class="st2" x1="588.8" y1="304.7" x2="594.1" y2="309.6"/>
	<line class="st2" x1="594.1" y1="309.6" x2="598.1" y2="305.6"/>
	<line class="st2" x1="598.5" y1="305.2" x2="602.5" y2="309.3"/>
	<line class="st2" x1="602.5" y1="309.3" x2="608.8" y2="305.4"/>
	<line class="st2" x1="608.6" y1="304.9" x2="613.7" y2="309.3"/>
	<line class="st2" x1="205.8" y1="310.3" x2="616" y2="327.5"/>
	<line class="st2" x1="652.2" y1="305.1" x2="655.8" y2="308.2"/>
	<line class="st2" x1="652.2" y1="305.3" x2="649.9" y2="308.1"/>
	<line class="st2" x1="655.6" y1="308.6" x2="658.2" y2="304.8"/>
	<line class="st2" x1="658.3" y1="304.7" x2="661.5" y2="308.8"/>
	<line class="st2" x1="660.8" y1="307.3" x2="663" y2="304.7"/>
	<line class="st2" x1="663" y1="304.8" x2="667.4" y2="308.6"/>
	<line class="st2" x1="666.1" y1="307.7" x2="668.4" y2="304.8"/>
	<line class="st2" x1="668.4" y1="304.7" x2="671.8" y2="307.7"/>
	<line class="st2" x1="671.3" y1="306.8" x2="673.2" y2="304.2"/>
	<line class="st2" x1="673.2" y1="304.5" x2="677.1" y2="308.4"/>
	<line class="st2" x1="675.8" y1="306.8" x2="677.9" y2="304.2"/>
	<line class="st2" x1="677.8" y1="304.3" x2="682" y2="308"/>
	<line class="st2" x1="680.9" y1="306.7" x2="683.1" y2="304.3"/>
	<line class="st2" x1="683" y1="304.4" x2="687.2" y2="307.5"/>
	<line class="st2" x1="685.8" y1="306.4" x2="687.4" y2="304.5"/>
	<line class="st2" x1="687.9" y1="304.2" x2="691.7" y2="307.5"/>
	<line class="st2" x1="689.9" y1="306.5" x2="692.4" y2="304.1"/>
	<line class="st2" x1="692.2" y1="303.9" x2="696.9" y2="307.1"/>
	<line class="st2" x1="694.7" y1="305.8" x2="696.3" y2="303.8"/>
	<line class="st2" x1="696.2" y1="303.3" x2="700.8" y2="306.9"/>
	<line class="st2" x1="699.5" y1="305.2" x2="701.1" y2="303.3"/>
	<line class="st2" x1="700.8" y1="303.2" x2="705" y2="307"/>
	<line class="st2" x1="703.3" y1="305.9" x2="705.5" y2="303.2"/>
	<line class="st2" x1="707.9" y1="305.2" x2="709.9" y2="303.1"/>
	<line class="st2" x1="712" y1="305.4" x2="714" y2="302.9"/>
	<line class="st2" x1="716.4" y1="305.5" x2="718.4" y2="302.8"/>
	<line class="st2" x1="720.7" y1="305.2" x2="722.4" y2="303"/>
	<line class="st2" x1="724.2" y1="305.3" x2="726.5" y2="302.8"/>
	<line class="st2" x1="727.8" y1="304.8" x2="730.2" y2="302.4"/>
	<line class="st2" x1="732.1" y1="304.8" x2="734" y2="302.7"/>
	<line class="st2" x1="736.2" y1="304.6" x2="739.6" y2="302.2"/>
	<line class="st2" x1="704.9" y1="303.8" x2="709.2" y2="307.1"/>
	<line class="st2" x1="710.8" y1="303.8" x2="714.4" y2="307"/>
	<line class="st2" x1="714.8" y1="303.2" x2="718.2" y2="306.9"/>
	<line class="st2" x1="718.4" y1="303.1" x2="722.2" y2="306.4"/>
	<line class="st2" x1="722.3" y1="303" x2="725.7" y2="306.4"/>
	<line class="st2" x1="726.2" y1="302.8" x2="728.8" y2="306.3"/>
	<line class="st2" x1="730.3" y1="303" x2="734.1" y2="306.3"/>
	<line class="st2" x1="734.4" y1="303.1" x2="737.2" y2="306.3"/>
	<line class="st2" x1="738.8" y1="302.5" x2="741.5" y2="306.1"/>
	<line class="st2" x1="739.7" y1="303.2" x2="741.1" y2="302.2"/>
	<line class="st2" x1="741.1" y1="302.2" x2="746" y2="305.1"/>
	<line class="st2" x1="744.6" y1="303.2" x2="746.4" y2="301.2"/>
	<line class="st2" x1="746.2" y1="301.2" x2="748.1" y2="304.8"/>
	<line class="st2" x1="747.6" y1="302.2" x2="749.2" y2="300.9"/>
	<line class="st2" x1="749.3" y1="301.2" x2="752.3" y2="304.6"/>
	<g id="XMLID_7_">
		<g>
		</g>
		<g>
			<line class="st1" x1="751.1" y1="302.4" x2="752.5" y2="300.6"/>
		</g>
	</g>
	<line class="st2" x1="755.8" y1="300.9" x2="758.2" y2="303.9"/>
	<line class="st2" x1="752.8" y1="300.6" x2="756.3" y2="303.7"/>
	<line class="st2" x1="755.1" y1="302.6" x2="756.8" y2="301"/>
	<line class="st2" x1="759.1" y1="300.4" x2="762" y2="304"/>
	<line class="st2" x1="757.8" y1="302.7" x2="759.9" y2="300.5"/>
	<line class="st2" x1="763.4" y1="300.8" x2="766.2" y2="303.9"/>
	<line class="st2" x1="760.2" y1="302.2" x2="763.2" y2="300.4"/>
	<line class="st2" x1="764" y1="301.7" x2="766.8" y2="299.8"/>
	<line class="st2" x1="757.9" y1="296.5" x2="777" y2="297.8"/>
	<line class="st2" x1="775" y1="298" x2="782.7" y2="295.8"/>
	<line class="st2" x1="758.2" y1="296.4" x2="771.3" y2="291.8"/>
	<line class="st2" x1="770.8" y1="292" x2="781.1" y2="296"/>
	<line class="st2" x1="757.7" y1="296.4" x2="754.1" y2="300.6"/>
	<line class="st2" x1="650" y1="328.7" x2="774.3" y2="317.8"/>
	<line class="st2" x1="169.3" y1="442.7" x2="646.2" y2="549.5"/>
	<path class="st1" d="M222.1,311c0.9,0.3,1.6,1.1,1.9,2.1c0.3,1.3-0.2,2.7-0.5,4c-0.6,3.5,1,7,0.7,10.6c-0.4,4-3.2,7.6-3,11.7
		c0.2,2.4,1.4,4.6,1.8,6.9c1.1,6.2-3.6,12.3-2.6,18.5c0.4,2.5,1.7,4.7,1.8,7.2c0.1,1.7-0.3,3.3-0.5,4.9c-0.6,3.6-0.6,7.2-0.6,10.8"
		/>
	<path class="st1" d="M226.7,311.2c-1.2,2.7-0.4,5.9,0,8.8c0.7,4.7,0.3,9.5-1.2,14.1c-0.6,1.8-1.3,3.5-1.2,5.4
		c0.1,2.8,1.9,5.4,2.1,8.2c0.2,2.4-0.8,4.7-1.5,7c-0.6,1.8-1,3.6-1.2,5.4c-0.1,1-0.2,2-0.1,3c0.1,0.9,0.5,1.8,0.7,2.7
		c2.1,7.3-1.3,15.1-1,22.7"/>
	<path class="st1" d="M321,372.2c0.1,0,0-0.3-0.1-0.2c-0.1,0.1-0.1,0.2-0.1,0.4c0,1.6,0.1,3.1,0.1,4.7c0,1,0.1,2,0.3,3
		c0.2,0.9,0.6,1.8,0.9,2.7c0.7,2.3,0.7,4.7,0.5,7.1c-0.3,4.1-1.2,8.2-2.6,12.1"/>
	<path class="st1" d="M324,372c0.3,1.6,0.6,3.3,0.8,4.9c0.8,5.5,1.6,11.1,0.8,16.5c-0.5,3-1.4,6-1.1,9"/>
	<line class="st2" x1="303.5" y1="400" x2="303.5" y2="438"/>
	<line class="st2" x1="303.5" y1="315" x2="303.5" y2="400"/>
	<line class="st2" x1="306.5" y1="370" x2="306.5" y2="401"/>
	<line class="st2" x1="205.5" y1="160.2" x2="196.9" y2="385.5"/>
	<line class="st2" x1="200.7" y1="386" x2="204.3" y2="385.7"/>
	<line class="st2" x1="204.3" y1="385.7" x2="203" y2="418.5"/>
	<path class="st3" d="M239.1,311.6c-0.4,3-0.8,6.1-0.3,9.1c0.3,1.7,0.8,3.3,0.9,5c0.1,1.4-0.2,2.7-0.5,4.1c-0.5,2.4-1,4.9-2,7.1
		c-0.3,0.6-0.6,1.2-0.6,1.8c0,0.6,0.2,1.1,0.4,1.7c1,2.8,1.1,5.8,1.1,8.8c0,2.6,0.1,5.2-0.9,7.6c-0.5,1.3-1.2,2.4-1.6,3.7
		c-1.1,3.9,1.4,7.8,1.7,11.9c0.1,1.4-0.1,2.9-0.2,4.3c-0.5,3.8-0.9,7.6-1.4,11.3c-0.1,0.7-0.2,1.4-0.3,2"/>
	<path class="st3" d="M241.3,312c0.2,4.3,0.4,8.6,0.5,12.9c0.1,2.2,0.1,4.5-0.6,6.6c-0.5,1.6-1.5,3-1.8,4.7
		c-0.5,2.6,0.6,5.2,1.3,7.8c1.1,4.4,0.9,9.1-0.6,13.3c-0.6,1.7-1.4,3.3-1.5,5.1c0,2.1,1,4.1,1.5,6.2c0.5,2,0.4,4.1,0.3,6.1
		c-0.3,5.2-0.8,10.4-1.5,15.6c-0.3,0.1-0.6,0.1-1,0.2"/>
	<path class="st3" d="M254.7,312.3c-0.4,3.2-0.6,6.5-0.8,9.7c-0.1,1.2-0.1,2.5,0.2,3.7c0.3,1.2,0.9,2.2,1.1,3.4c0.5,2.3-0.4,4.7-1,7
		c-1.2,4-1.8,8.5-0.3,12.4c0.6,1.6,1.5,3.2,1.4,4.9c-0.1,1.1-0.6,2.1-1.1,3.1c-2,4.6-2.6,9.8-1.5,14.8c0.5,2.3,1.3,4.5,1.2,6.8
		c-0.1,1.9-0.8,3.7-1.2,5.5c-0.6,3-0.4,6-0.2,9c-0.4-0.1-0.8-0.1-1.2-0.2"/>
	<path class="st3" d="M258.1,312.8c-0.8,3.9-1.5,7.8-0.9,11.7c0.3,2.1,1.1,4.3,1,6.4c-0.1,2.3-1.3,4.4-1.9,6.7
		c-0.9,3.1-1,6.4-0.1,9.5c0.5,1.7,1.2,3.3,1.4,5.1c0.3,2.8-0.9,5.6-1.5,8.3c-1,3.9-1,8-0.1,12c0.3,1.3,0.7,2.7,0.7,4
		c0,1.9-0.7,3.6-1.1,5.4c-0.8,3.6-0.5,7.4-0.2,11c-0.7-0.1-1.4-0.3-2.2-0.4"/>
	<path class="st3" d="M271.4,314c0.5,2.1-0.4,4.3-0.6,6.4c-0.4,4.7,2.5,9.3,1.7,13.9c-0.3,1.9-1.3,3.6-1.8,5.5
		c-1.4,5.3,1.4,10.9,0.9,16.4c-0.4,4.3-2.8,8.3-2.4,12.6c0.2,2.5,1.4,4.9,1.8,7.4c0.4,3.2-0.6,6.4-1.1,9.6c-0.5,3-0.5,6.1,0,9.1"/>
	<path class="st3" d="M275.1,314.1c-0.9,4.3-0.9,8.7,0,13c0.3,1.5,0.8,3,0.7,4.6c-0.1,3-2.1,5.5-2.7,8.4c-1,4.5,1.4,9.1,1.5,13.7
		c0.1,5.1-2.4,9.9-2.3,14.9c0.1,2.4,0.7,4.8,1,7.2c0.6,6.6-2,13.2-1,19.7"/>
	<path class="st3" d="M289,314.2c-0.9,2.7-0.1,5.6,0.3,8.3c1,6.3,0.4,12.8-1.9,18.7c-0.4,1-0.9,2.1-0.9,3.2c0,1.8,1.2,3.4,2,5.1
		c1.1,2.7,1,5.8,0.4,8.6s-1.7,5.6-2.3,8.5c-0.3,1.4-0.5,2.9-0.3,4.3c0.3,2,1.3,3.7,1.9,5.7c1.9,6.6-2.3,13.6-1.1,20.4
		c-0.3,0.1-0.7,0.1-0.9-0.2"/>
	<path class="st3" d="M292.2,314.1c-1.1,3.9-1.2,8.1-0.2,12c0.3,1.3,0.7,2.5,0.8,3.8c0.1,2-0.4,3.9-1.1,5.8
		c-1.2,3.8-2.5,7.8-1.3,11.6c0.4,1.3,1,2.4,1.5,3.7c1.5,4.1,0.5,8.7-1.2,12.7c-0.7,1.6-1.5,3.1-1.6,4.8c-0.3,2.6,1,5.2,1.5,7.8
		c1.2,6.1-1.7,12.4-0.8,18.5c0.1,0.6,0.2,1.2,0.1,1.7s-0.6,1.1-1.1,1.1"/>
	<path class="st3" d="M341.1,374c-0.8,4.5,1.3,9,1.6,13.6c0.2,3.4-0.6,6.9-1.7,10.1c-0.4,1.1-0.8,2.1-0.9,3.2
		c-0.2,1.2-0.1,2.5,0.2,3.7"/>
	<path class="st3" d="M344.5,374c0,1.4-0.1,2.8-0.1,4.1c0,1.5-0.1,3,0.2,4.4c0.3,1.6,1.1,3.1,1.3,4.7c0.5,3.2-1,6.2-1.6,9.4
		c-0.6,3-0.5,6.2,0.3,9.2"/>
	<path class="st3" d="M360.2,376c0.7,1.8,0,3.9,0.4,5.8c0.3,1.7,1.3,3.2,1.9,4.8c1.2,3.7-0.4,7.7-1.1,11.5c-0.5,2.8-0.6,5.8-0.2,8.7
		c0,0.2,0,0.5-0.1,0.6c-0.2,0.1-0.3-0.3-0.1-0.3"/>
	<path class="st3" d="M364.2,376.2c0.8,1.8,0.2,3.9,0.5,5.9c0.2,1.3,0.8,2.5,1.2,3.8c2.1,7.1-3.6,15.1-1.1,22.1"/>
	<path class="st3" d="M382.5,378.5c-0.2,2.3,0,4.7,0.7,6.9c0.5,1.4,1.1,2.8,1.3,4.2c0.2,1.2,0,2.5-0.1,3.8
		c-0.6,5.4-1.2,10.8-1.9,16.1c0,0.2-0.1,0.4-0.2,0.5s-0.3-0.2-0.2-0.3"/>
	<path class="st3" d="M385.4,378.5c-0.9,5,2.5,9.7,2.6,14.8c0.1,3.6-1.4,7-1.5,10.6c-0.1,2.2,0.3,4.5-0.7,6.4
		c-0.3,0.1-0.6,0.2-0.9,0.3"/>
	<path class="st3" d="M404.9,380.4c0.4,2-0.9,4.1-0.6,6.1c0.2,1.5,1.2,2.8,1.7,4.2c0.6,1.7,0.4,3.5,0.2,5.3
		c-0.5,5.7-1,11.4-1.6,17.1c-0.2-0.3-0.3-0.6-0.5-0.9"/>
	<path class="st3" d="M407.4,381.2c-0.7,2.2,0.3,4.7,0.9,6.9c0.9,3.4,1.1,7,0.4,10.4c-0.4,2-1,4-1.2,6c-0.3,3,0.3,6.2-0.3,9.2"/>
	<path class="st3" d="M473.9,321.9c-0.2,1.9-0.2,3.8-0.1,5.7c0.5,7.2,3.5,14.7,0.9,21.5c-0.4,0.9-0.8,1.8-1.1,2.8
		c-0.4,1.6-0.3,3.3-0.1,4.9c0.4,3.7,1.1,7.4,1.9,11c0.6,2.4,1.2,4.9,0.8,7.3c-0.3,1.7-1.2,3.3-1.8,4.9c-1.8,4.3-2.5,9.2-1.1,13.7
		c0.7,2.2,1.9,4.2,2.4,6.4c0.5,2.6,0,5.3-0.3,8c-0.6,4.7-0.8,9.4-0.6,14.1c0,0.3,0.1,0.7,0.4,0.8c0.3,0.1,0.3-0.6,0.1-0.4"/>
	<path class="st3" d="M470.8,321.9c-0.1,1-0.3,2.6-0.1,4.5c0.1,1.4,0.3,2.4,0.4,2.8c0.6,2.9,1.6,9.9,1.6,14.1
		c0,7.4-2.3,6.3-2.8,12.4c-0.4,5.5,2.2,10.6,3.6,15.9c0.2,0.8,0.4,1.6,0.3,2.4c-0.1,1-0.7,1.9-1.2,2.8c-1.7,3.3-2.5,7.1-2.3,10.9
		c0.3,4.1,1.8,8.1,2.1,12.3c0.2,3.8-0.2,4.5-0.5,12.4c-0.2,4.5-0.2,8.1-0.2,10.4"/>
	<path class="st3" d="M496.7,322.3c0.4,2.6,0.5,5.2,0.5,7.8c-0.1,2.5-0.3,5,0.4,7.4c0.4,1.4,1.1,2.7,1.4,4.1c0.3,1.4,0.2,2.8,0,4.2
		c-0.3,2.7-0.8,5.3-1.4,7.9c-0.6,2.5-1.3,5.1-1,7.7c0.2,1.8,1,3.6,1.6,5.3c1.3,3.8,2,8,0.9,12c-0.6,2.4-1.9,4.5-2.4,6.9
		c-1.5,6.9,3.1,13.8,3,21c0,2.3-0.6,4.5-0.9,6.8c-0.6,4.2-0.4,8.6-0.3,12.8c0-0.4,0-0.7-0.1-1.1"/>
	<path class="st3" d="M500.1,322.5c0.9,0.3,0.5,1.7,0.2,2.6c-1.7,4.6,1.4,9.6,2,14.5c1.1,8-4.2,16.2-1.9,23.9c0.6,1.8,1.5,3.5,2,5.4
		c2.3,8.2-4.9,17-2.4,25.1c0.6,2.1,1.9,4.1,2.4,6.3c0.5,2.2,0.2,4.5,0,6.8c-0.7,6.6-0.9,13.3-0.6,20"/>
	<path class="st3" d="M525.7,323.4c-0.7,0.9-1.1,2-1.3,3.2c-1.6,8.6,4.7,17.7,1.7,25.9c-0.9,2.5-2.6,4.6-3,7.2
		c-1,5.5,3.7,10.5,4.1,16.1c0.3,5-2.8,9.6-3.1,14.6c-0.4,6.4,4,12.3,3.7,18.8c-0.1,2.3-0.8,4.5-1.3,6.7c-1.1,4.8-1.1,9.9-0.2,14.8"
		/>
	<path class="st3" d="M529.6,324c-1.2,3.3-2.4,6.7-1.8,10.1c0.4,2.5,1.7,4.6,2.5,7c1.1,3.5,0.9,7.5-0.4,11c-0.6,1.6-1.3,3-1.9,4.6
		c-1.8,4.9-1.4,10.6,1,15.3c1.9,3.7,2.6,6.3,1.2,10.3c-0.7,1.8-1.7,3.5-2.2,5.4c-1.1,4.6,1.5,9.2,2.5,13.8
		c2.2,9.8-2.8,20.5,0.6,29.9c-0.1-0.4-0.2-0.9-0.3-1.3"/>
	<path class="st3" d="M554.4,324.7c-1.6,5.8-1.5,12,0.4,17.7c0.5,1.4,1,2.8,1.2,4.2c0.5,3.7-1.2,7.2-2.2,10.8
		c-1.3,4.8-1.1,10.1,0.5,14.8c0.8,2.2,1.9,4.3,2.4,6.6c0.6,2.6,0.4,5.5-0.6,8c-1.1,2.9-3.2,5.4-3.6,8.5c-0.6,5.1,3.6,9.4,4.5,14.4
		c0.7,3.5-0.3,7.2-1,10.7c-0.9,4.7-1.2,9.4-1,14.1c0,0.4-0.6,0.5-0.8,0.2"/>
	<path class="st3" d="M559.1,325.1c-1.1,3.7-1.3,7.7-0.5,11.4c0.5,2.3,1.4,4.5,1.7,6.8c1,8.2-5.2,16.3-3.5,24.4
		c0.7,3.2,2.5,5.9,3.5,9c1.1,3.5,0.9,7.5-0.5,10.9c-1.4,3.5-4,6.8-3.3,10.5c0.5,2.7,2.8,4.8,3.7,7.4c0.7,2,0.5,4.2,0.3,6.3
		c-0.7,7.9-1.4,15.8-2.1,23.7"/>
	<path class="st3" d="M585.5,326.6c-0.1,6.1-0.2,12.2,1.2,18.1c0.3,1.6,0.8,3.1,0.9,4.7c0.2,3.2-1,6.3-1.9,9.4
		c-1.2,4-1.9,8.3-0.8,12.4c0.9,3.2,2.8,6,3.4,9.3c1.5,8.2-6.1,16.6-3.2,24.5c0.6,1.7,1.8,3.3,2.5,5c1.7,4.3,0.3,9.1-0.5,13.7
		c-0.9,5.2-1.1,10.5-0.4,15.8c-0.1-0.8-0.2-1.7-0.3-2.5"/>
	<path class="st3" d="M589.5,326.6c-0.2,4.5-0.3,9.1,0.7,13.5c0.4,1.8,1.1,3.6,1.3,5.4c0.8,6.6-3.7,12.8-3.3,19.4
		c0.4,5.9,4.6,11.1,4.5,17c-0.1,6.8-6,12.6-5.3,19.4c0.4,3.5,2.4,6.5,3.4,9.9c0.9,3.2,0.7,6.6,0.6,9.9c-0.3,6.3-0.6,12.6-1,18.9"/>
	<ellipse class="st1" cx="676.6" cy="384.5" rx="10.9" ry="22.2"/>
	<ellipse class="st1" cx="697.9" cy="380.5" rx="10.1" ry="21.2"/>
	<ellipse class="st1" cx="742" cy="399.7" rx="1.8" ry="4.5"/>
	<ellipse class="st1" cx="746.4" cy="398.2" rx="1.8" ry="4.5"/>
	<line class="st1" x1="169.3" y1="442.7" x2="169.7" y2="425.7"/>
	<path class="st1" d="M427.3,382.8c0-0.2,0.3,0,0.4,0.2c0.1,1.4-0.4,2.9,0.1,4.1c0.2,0.4,0.4,0.8,0.6,1.2c0.9,1.6,1,3.4,1.2,5.3
		c0.1,1.8,0.3,3.6,0,5.3c-0.2,1.3-0.6,2.5-0.9,3.8c-1,4.4-0.1,9.2-1.6,13.4c0.1-0.3,0.2-0.7,0.3-1"/>
	<path class="st1" d="M430.8,383.1c-0.3,2.1-0.6,4.3,0.1,6.2c0.3,0.9,0.8,1.7,1.2,2.6c1.1,2.5,1.2,5.5,0.2,8c-0.4,1.1-1,2-1.2,3.1
		c-0.2,0.8-0.2,1.6-0.3,2.5c-0.1,3.8-0.3,7.7-0.4,11.5c0.1-0.5,0.1-1.1,0.2-1.6"/>
	<path class="st1" d="M170,425.4c0-0.5,0.2-1,0.7-1.2c2-1.3,4.2-2.7,6.5-3.3"/>
	<line class="st2" x1="210.5" y1="160.2" x2="201.9" y2="385.5"/>
	<line class="st2" x1="791" y1="445.3" x2="794" y2="469"/>
	<line class="st2" x1="657.7" y1="452.3" x2="774.2" y2="412.5"/>
	<g id="XMLID_1_">
		<g>
		</g>
		<g>
			<polyline class="st1" points="642.5,447 642.5,448.4 642.5,502 			"/>
			<polyline class="st1" points="643.5,504.5 643.6,504.5 658,498.1 785.3,442 			"/>
			<line class="st1" x1="474.5" y1="423" x2="642.5" y2="448.4"/>
			<polyline class="st1" points="642.5,448.4 656.4,443.9 778.3,404.2 			"/>
			<line class="st1" x1="635.8" y1="95.5" x2="642.5" y2="448.4"/>
			<line class="st1" x1="656.5" y1="444.3" x2="658" y2="498.1"/>
		</g>
	</g>
	<line class="st2" x1="774.2" y1="412.5" x2="774.2" y2="446.9"/>
	<line class="st2" x1="777.7" y1="404" x2="783" y2="406"/>
	<line class="st2" x1="783" y1="405.7" x2="788.3" y2="401.7"/>
	<line class="st2" x1="782.7" y1="406" x2="784.7" y2="442.7"/>
	<line class="st2" x1="784.3" y1="442" x2="790" y2="439.3"/>
	<line class="st2" x1="773" y1="297.7" x2="778.8" y2="404.4"/>
	<line class="st2" x1="758.3" y1="319.5" x2="761.5" y2="408.7"/>
	<line class="st2" x1="660.3" y1="330.2" x2="660.3" y2="327.7"/>
	<line class="st2" x1="661" y1="331.5" x2="754.3" y2="324.2"/>
	<line class="st1" x1="763" y1="319.5" x2="763" y2="319.5"/>
	<path class="st1" d="M762.8,319.8c-1,2.3-1.5,4.8-1.3,7.3c0.1,1.7,0.6,3.4,0.2,5c-0.2,0.9-0.6,1.7-0.8,2.6c-0.2,1.1,0,2.2,0.1,3.3
		c0.5,3.2,1,6.4,1.5,9.5c0.3,1.8,0.6,3.7,0.1,5.5c-0.3,1.1-0.8,2.1-1,3.2c-0.8,3.3,0.5,6.6,1.2,9.9c1.3,6.4,0,13-0.3,19.6
		c-0.2,3.6,0,7.2,0.1,10.8c0.2,4.1,0.3,8.4,1.9,12.2"/>
	<path class="st1" d="M766.4,318.9c-0.8,0.2-1.2,1.2-1.4,2c-1.8,9-0.9,18.3,0,27.4c0.3,3.2,0.5,6.5,0,9.6c-0.2,1.4-0.6,2.7-0.7,4.1
		c-0.5,5.3,2.3,10.5,1.6,15.8c-0.1,1-0.4,1.9-0.5,2.9c-0.1,1.1-0.1,2.2-0.1,3.3c0.1,5.4,0.3,10.7,0.4,16.1c0.1,2.2,0.1,4.5,1.3,6.4
		c0.1,0.2,0.3,0.4,0.5,0.4"/>
	<line class="st2" x1="331.6" y1="302.5" x2="334.5" y2="299.6"/>
	<line class="st2" x1="343" y1="302.5" x2="345.3" y2="300.2"/>
	<line class="st2" x1="374.5" y1="303.9" x2="377.4" y2="301"/>
	<line class="st2" x1="613.7" y1="309.3" x2="616.8" y2="306"/>
	<path class="st1" d="M213.9,142.4c-0.6,0.7-0.6,1.8-0.5,2.7c0.1,1.4,0.2,2.9,1.2,3.9c1.2,1.2,3,1.2,4.6,1.6
		c2.1,0.5,3.9,1.8,5.7,3.1c1.3,0.9,2.6,1.9,3.9,2.8c0.2,0.2,0.5,0.4,0.5,0.6c0,0.3-0.2,0.6-0.4,0.7c-1.1,0.7-2.4,0.1-3.6-0.3
		c-1.4-0.6-2.9-1-4.5-1.2c-0.5-0.1-1.2-0.1-1.6,0.2"/>
	<path class="st1" d="M205.6,142.5c0.1,1,0.2,2,0.1,3s-0.7,2-1.5,2.4c-0.5,0.3-1.1,0.3-1.7,0.4c-2.5,0.4-5,1.2-7.2,2.7
		s-3.8,3.8-4.4,6.4c2.4,0.4,4.3-2.3,6.8-2.6c1.7-0.2,3.4,0.8,4.1,2.4"/>
	<path class="st1" d="M204.2,150.4c0.6,1.2,0.7,2.7,0.4,4c-0.1,0.3-0.1,0.5-0.1,0.8c0.1,0.3,0.3,0.5,0.5,0.6c0.8,0.5,1.9,0,2.5-0.7
		c0.6-0.7,1-1.6,1.5-2.4c0.8-1.3,2.1-2.3,3.5-2.8c0.2,0.2,0.3,0.3,0.5,0.5"/>
	<path class="st1" d="M617.7,97.8c-1.3-1.1-1.5-3.1-2.7-4.2c-1.4-1.2-3.6-0.8-5.2,0c-1.7,0.8-3.2,2-5.1,2.2c-0.8,0.1-1.8,0-2.3-0.7
		c-1-1.1-0.1-2.9,1-3.9c1.2-1.2,2.6-2.2,4-3.1c1.6-1.1,3.2-2.3,5.1-3c3.1-1.2,7.1-1.4,9-4.1c1.4-2.1,1.1-4.9,0.7-7.4"/>
	<path class="st1" d="M635.1,72.1c0.4,0.4,0.3,1.1,0.1,1.6c-0.2,0.5-0.6,0.9-0.8,1.4c-0.5,1.3,0,2.8,1,3.8c1,1,2.3,1.5,3.6,2.1
		c6,2.4,12.4,4.2,15.2,10.7c0.4,1,0.7,2.1,0.5,3.2c-0.3,1.1-1.2,2-2.3,1.9c-1.6-0.1-2.3-2.1-3.6-3.1c-1.9-1.6-4.7-0.9-6.9,0.2"/>
	<path class="st1" d="M626.1,82.2c0.5-0.1,1-0.1,1.6,0c2.6,0.4,4.7,2.7,5,5.2c0,0.2,0,0.4,0.2,0.6c0.2,0.3,0.6,0.4,0.9,0.4
		c1.8,0.3,3.7,0.4,5.5,0.3c-0.2-1.2-0.2-2.3-0.1-3.5"/>
	<path class="st1" d="M232.2,119.1c0.3,1.3-0.3,5.7-0.5,4.2c-0.3-1.9-14.7-4.5-22-4.5c-6.6,0-20.1,0.7-21.2,1.5
		c-1.6,1.2-1.9-1.5-0.9-3.3c0.7-1.3,2.1-1.9,3.2-2.2c2.5-0.7,5.2-1.1,7.8-1.2c6-0.4,11.1,0.3,11.1,0.3c6.9,0.2,11.3,1.3,13.3,1.7
		C229.8,116.9,231.7,116.5,232.2,119.1z"/>
	<path class="st4" d="M23,120c0,0,10.7,0,24,0"/>
	<path class="st3" d="M197.6,138.4c0.7-1.4,22.1-1.3,22.8,1.4"/>
	<path class="st3" d="M197.6,138.4c0.7-1.4,22.1-1.3,22.8,1.4"/>
	<path class="st3" d="M615.5,68.5c0.5-2.9,27.9-6.4,29.5-1.3"/>
	<path class="st3" d="M597.3,40.9c2.3-1.7,5.8-3.9,10.4-5.7c4.1-1.5,7.2-2,13.1-2.8c6.1-0.9,10.5-1,12.2-1c2.9,0,5.2,0.1,6.3,0.2
		c1.5,0.1,4.8,0.4,8.3,1c3.1,0.5,7.7,1.7,13.2,4.3"/>
	<path class="st3" d="M597.7,33.6c1.9-1.6,5-3.7,9.1-5.3c3.7-1.5,6.8-1.9,13.1-2.8c6.1-0.9,10.5-1,12.2-1c2.9,0,5.2,0.1,6.3,0.2
		c1.5,0.1,4.8,0.3,8.3,1c3.1,0.6,7.7,1.8,13.2,4.3"/>
	<g>
		<g>
			<path class="st3" d="M309.4,342l3.5-0.3c0.1,1.2,0.2,2.2,0.5,2.8c0.4,1.1,0.9,1.6,1.6,1.7c0.5,0,0.9-0.2,1.2-0.7
				c0.3-0.5,0.4-1.1,0.4-1.8c0-0.7-0.1-1.3-0.4-1.8c-0.3-0.5-0.9-1.1-1.9-1.6c-1.6-0.9-2.8-2-3.5-3.3c-0.7-1.3-1.1-3-1.1-5
				c0-1.3,0.2-2.6,0.5-3.7c0.4-1.2,0.9-2.1,1.6-2.7c0.7-0.6,1.7-0.9,3-0.9c1.5,0.1,2.7,0.8,3.5,2c0.8,1.3,1.3,3.3,1.5,6l-3.5,0.2
				c-0.1-1.2-0.3-2-0.6-2.6c-0.3-0.5-0.7-0.8-1.2-0.9c-0.4,0-0.8,0.2-1,0.5c-0.2,0.4-0.3,0.9-0.3,1.4c0,0.4,0.1,0.8,0.3,1.1
				c0.2,0.4,0.6,0.7,1.3,1c1.6,0.8,2.8,1.7,3.5,2.5c0.7,0.8,1.2,1.8,1.6,3c0.3,1.2,0.5,2.5,0.5,3.9c0,1.7-0.2,3.2-0.6,4.6
				c-0.4,1.4-1,2.4-1.8,3.1c-0.8,0.7-1.7,1-2.9,0.9c-2-0.1-3.5-1.1-4.3-2.8C309.9,346.8,309.5,344.6,309.4,342z"/>
			<path class="st3" d="M331.4,352l-3.2-0.2l0-3.1c-0.5,1.2-0.9,2.1-1.4,2.6c-0.5,0.5-1.1,0.7-1.8,0.7c-0.9-0.1-1.7-0.7-2.2-1.9
				c-0.5-1.2-0.8-3.1-0.8-5.5l0-12l3.4,0.2l0,10.4c0,1.2,0.1,2,0.3,2.5c0.2,0.5,0.5,0.8,0.9,0.8c0.4,0,0.7-0.3,1-0.9
				c0.3-0.6,0.4-1.8,0.4-3.6l0-9.1l3.4,0.2L331.4,352z"/>
			<path class="st3" d="M333.4,326l3.5,0.2l0,9.1c0.3-0.7,0.7-1.3,1.2-1.7c0.4-0.4,0.9-0.5,1.5-0.5c1.1,0.1,2,0.9,2.7,2.7
				c0.7,1.7,1.1,4.1,1.1,7.3c0,2.1-0.2,3.9-0.5,5.5c-0.3,1.6-0.8,2.7-1.4,3.5c-0.6,0.7-1.2,1.1-1.9,1c-0.6,0-1.2-0.4-1.7-0.9
				c-0.4-0.5-0.8-1.3-1.2-2.5l0,2.8l-3.2-0.2L333.4,326z M336.9,342.9c0,1.6,0.2,2.8,0.4,3.6c0.3,0.8,0.7,1.1,1.1,1.2
				c0.4,0,0.8-0.3,1-1c0.3-0.7,0.4-1.9,0.4-3.6c0-1.5-0.1-2.6-0.4-3.3c-0.3-0.7-0.6-1.1-1-1.1c-0.5,0-0.9,0.3-1.1,1
				C337,340.3,336.9,341.4,336.9,342.9z"/>
			<path class="st3" d="M344,333.8l3.4,0.2l1.5,12.2l1.8-12l3.2,0.2l2,12.3l1.4-12.1l3.4,0.2l-3.3,19.1l-3.1-0.2l-1.9-11.7
				l-1.8,11.4l-3.1-0.2L344,333.8z"/>
			<path class="st3" d="M364.8,341.2l-3.4-1c0.1-1.2,0.3-2.2,0.5-2.9c0.2-0.7,0.6-1.3,1-1.8c0.3-0.4,0.8-0.6,1.3-0.8
				c0.6-0.2,1.2-0.2,1.9-0.2c1.1,0.1,1.9,0.2,2.6,0.5c0.7,0.3,1.2,0.8,1.6,1.7c0.3,0.6,0.6,1.4,0.7,2.4c0.2,1,0.3,2,0.3,2.9l0,8.6
				c0,0.9,0,1.6,0.1,2.2c0.1,0.5,0.2,1.2,0.4,2l-3.4-0.2c-0.1-0.5-0.2-0.9-0.3-1.2c0-0.3-0.1-0.7-0.1-1.2c-0.5,0.9-0.9,1.5-1.4,1.9
				c-0.6,0.5-1.4,0.7-2.2,0.7c-1.1-0.1-2-0.7-2.5-1.8c-0.6-1.1-0.9-2.4-0.9-4c0-1.5,0.2-2.7,0.6-3.6c0.4-0.9,1.2-1.6,2.3-2
				c1.3-0.5,2.2-0.8,2.6-1c0.4-0.2,0.8-0.5,1.3-0.8c0-0.9-0.1-1.6-0.3-1.9c-0.2-0.4-0.5-0.6-1-0.6c-0.6,0-1,0.1-1.3,0.5
				C365.1,339.8,364.9,340.4,364.8,341.2z M367.9,345.3c-0.5,0.3-1,0.6-1.5,0.9c-0.7,0.4-1.2,0.7-1.4,1.1c-0.2,0.4-0.3,0.8-0.3,1.4
				c0,0.6,0.1,1.1,0.3,1.5c0.2,0.4,0.5,0.6,0.9,0.6c0.4,0,0.8-0.2,1.1-0.5c0.3-0.4,0.6-0.9,0.7-1.4c0.1-0.6,0.2-1.3,0.2-2.2
				L367.9,345.3z"/>
			<path class="st3" d="M372.5,335.4l3.8,0.2l2,13.1l1.8-12.9l3.6,0.2l-3.7,20.7c-0.4,2.4-0.9,3.9-1.3,4.7c-0.6,1.1-1.6,1.7-2.9,1.6
				c-0.5,0-1.3-0.2-2.4-0.6l-0.3-5.2c0.5,0.4,1.1,0.6,1.7,0.6c0.4,0,0.8-0.1,1-0.5c0.3-0.4,0.5-1.1,0.7-2.1L372.5,335.4z"/>
		</g>
	</g>
	<g>
		<g>
			<path class="st3" d="M672.5,358.4l-6.7,0.9c0.1-1.6,0.2-3.2,0.5-4.7c0.4-1.5,1-3.3,2-5.4c0.6-1.3,1-2.2,1.2-2.9
				c0.2-0.6,0.2-1.2,0.2-1.8c0-0.6-0.1-1.1-0.3-1.5c-0.2-0.4-0.4-0.6-0.7-0.6c-0.3,0-0.5,0.3-0.7,0.7c-0.2,0.5-0.3,1.3-0.3,2.4
				l-2.1-0.2c0.1-1.6,0.2-2.8,0.5-3.7c0.2-0.9,0.5-1.6,0.9-2.1c0.4-0.5,1-0.8,1.7-0.9c0.7-0.1,1.3,0.1,1.7,0.5c0.4,0.4,0.7,1,1,1.9
				c0.2,0.9,0.4,1.9,0.4,3c0,1.2-0.1,2.4-0.4,3.5c-0.3,1.1-0.8,2.4-1.5,3.8c-0.4,0.8-0.7,1.4-0.9,1.7c-0.1,0.3,0,0.7-0.2,1.3
				l3.6-0.4V358.4z"/>
			<path class="st3" d="M674.9,344l-2-0.7c0.2-1.7,0.5-3,1-3.9c0.5-0.9,1.1-1.4,2-1.5c1-0.1,1.7,0.3,2.1,1.2
				c0.4,0.9,0.7,2.1,0.7,3.5c0,0.8-0.1,1.6-0.3,2.3c-0.2,0.7-0.4,1.3-0.8,1.9c0.3,0.1,0.5,0.3,0.7,0.6c0.2,0.4,0.4,0.9,0.6,1.5
				c0.1,0.6,0.2,1.4,0.2,2.3c0,1.1-0.1,2.2-0.3,3.3c-0.2,1.1-0.6,1.9-1,2.5c-0.4,0.6-1,1-1.7,1.1c-0.7,0.1-1.2,0-1.6-0.4
				c-0.4-0.4-0.7-0.9-1-1.7c-0.3-0.8-0.5-1.8-0.6-3l2.1-1c0.1,1.1,0.2,1.8,0.4,2.2c0.2,0.4,0.4,0.6,0.7,0.5c0.3,0,0.5-0.3,0.7-0.9
				c0.2-0.6,0.3-1.3,0.3-2.2c0-0.9-0.1-1.6-0.3-2.1c-0.2-0.5-0.4-0.7-0.7-0.7c-0.2,0-0.4,0.2-0.7,0.4l0.1-3.9c0.1,0,0.2,0,0.3,0
				c0.3,0,0.5-0.3,0.7-0.8c0.2-0.5,0.3-1,0.3-1.6c0-0.6-0.1-1.1-0.2-1.4c-0.1-0.3-0.3-0.5-0.6-0.5c-0.2,0-0.4,0.2-0.6,0.7
				C675,342.3,674.9,343,674.9,344z"/>
			<path class="st3" d="M683.3,350.4l2.2-0.6c0,0.9,0.1,1.6,0.3,2.1c0.2,0.8,0.6,1.1,1,1c0.3,0,0.6-0.3,0.7-0.7
				c0.2-0.4,0.3-0.9,0.3-1.4c0-0.5-0.1-0.9-0.2-1.3c-0.2-0.4-0.6-0.7-1.2-1c-1-0.5-1.7-1.2-2.1-2.1c-0.4-0.9-0.6-2.1-0.6-3.7
				c0-1,0.1-2,0.3-2.9c0.2-0.9,0.6-1.6,1-2.2c0.4-0.6,1-0.9,1.8-1c0.9-0.1,1.7,0.3,2.1,1.1c0.5,0.9,0.8,2.3,0.9,4.3l-2.1,0.6
				c-0.1-0.9-0.2-1.5-0.4-1.9c-0.2-0.4-0.4-0.5-0.8-0.5c-0.3,0-0.5,0.2-0.6,0.5c-0.1,0.3-0.2,0.7-0.2,1.1c0,0.3,0.1,0.6,0.2,0.8
				c0.1,0.2,0.4,0.4,0.8,0.6c1,0.4,1.7,0.9,2.1,1.4c0.4,0.5,0.7,1.2,0.9,2c0.2,0.8,0.3,1.8,0.3,2.8c0,1.2-0.1,2.4-0.4,3.5
				c-0.3,1.1-0.6,1.9-1.1,2.5c-0.5,0.6-1.1,1-1.8,1.1c-1.3,0.2-2.1-0.3-2.6-1.5C683.6,353.9,683.3,352.3,683.3,350.4z"/>
			<path class="st3" d="M693.5,336.2v5.3l1-0.1v3.9l-1,0.1v4.9c0,0.6-0.1,1,0,1.2c0.1,0.3,0.1,0.4,0.3,0.4c0.1,0,0.3-0.2,0.6-0.4
				l0.1,3.6c-0.5,0.4-1,0.6-1.4,0.6c-0.5,0.1-0.9,0-1.1-0.4c-0.2-0.3-0.3-0.8-0.4-1.5c-0.1-0.7-0.1-1.8-0.1-3.3v-4.9l-1,0.1v-3.9
				l1-0.1v-2.6L693.5,336.2z"/>
			<path class="st3" d="M695.5,341.2l1-0.2v2.3c1-1,0.8-1.7,0.9-2.1c0.2-0.4,0.6-0.6,0.9-0.6c0.3,0,0.7,0.2,1.1,0.6l-0.6,3.8
				c-0.2-0.2-0.4-0.3-0.5-0.3c-0.3,0-0.9,0.3-1.1,0.9c-0.2,0.8-0.8,2.4-0.8,4.6v4.6l-1,0.3V341.2z"/>
			<path class="st3" d="M705.5,348.1l-3.8,0.5c0,0.8,0.2,1.5,0.3,1.9c0.2,0.6,0.5,0.8,0.8,0.8c0.2,0,0.4-0.2,0.6-0.5
				c0.1-0.2,0.2-0.5,0.3-0.9l1.9,0.2c-0.3,1.4-0.6,2.4-1.1,3.1c-0.4,0.7-1,1-1.8,1.1c-0.7,0.1-1.2-0.1-1.6-0.5
				c-0.4-0.5-0.7-1.2-1-2.3c-0.3-1.1-0.4-2.4-0.4-3.9c0-2.2,0.3-3.9,0.8-5.3c0.5-1.4,1.2-2.1,2.1-2.3c0.7-0.1,1.3,0.1,1.7,0.7
				c0.4,0.5,0.7,1.4,0.9,2.5c0.2,1.1,0.2,2.5,0.2,4.3V348.1z M703.7,345.8c0-1-0.1-1.7-0.3-2.1c-0.2-0.4-0.4-0.6-0.7-0.6
				c-0.3,0-0.6,0.4-0.7,1.1c-0.1,0.4-0.2,1.1-0.2,1.9L703.7,345.8z"/>
			<path class="st3" d="M711.5,347.2l-3.5,0.5c0,0.8,0.3,1.4,0.4,1.8c0.2,0.6,0.5,0.8,0.8,0.8c0.2,0,0.4-0.2,0.6-0.5
				c0.1-0.2,0.2-0.5,0.4-0.9l1.9,0.2c-0.3,1.4-0.6,2.4-1,3.1c-0.4,0.6-1,1-1.8,1.1c-0.7,0.1-1.2-0.1-1.6-0.5c-0.4-0.5-0.7-1.2-1-2.3
				c-0.3-1.1-0.4-2.4-0.4-3.9c0-2.1,0.3-3.9,0.8-5.3c0.5-1.4,1.2-2.1,2.1-2.2c0.7-0.1,1.3,0.1,1.7,0.7c0.4,0.5,0.4,1.3,0.6,2.4
				c0.2,1.1,0,2.5,0,4.3V347.2z M710.2,345c0-1-0.1-1.7-0.3-2.1c-0.2-0.4-0.4-0.6-0.6-0.6c-0.3,0-0.6,0.4-0.7,1.1
				c-0.1,0.4-0.2,1-0.2,1.9L710.2,345z"/>
			<path class="st3" d="M715.5,333.7v5.1l1-0.1v3.8l-1,0.1v4.8c0,0.6-0.1,1,0,1.1c0.1,0.3,0.1,0.4,0.3,0.4c0.1,0,0.3-0.2,0.6-0.4
				l0.1,3.5c-0.5,0.3-0.9,0.5-1.3,0.6c-0.5,0.1-0.8-0.1-1-0.3c-0.2-0.3-0.8-0.8-1-1.4c-0.1-0.7-0.6-1.7-0.6-3.3v-4.8v0.1v-3.8V339
				v-2.5L715.5,333.7z"/>
			<path class="st3" d="M720.2,345.5l2-0.6c0,0.9,0.1,1.5,0.3,2c0.2,0.7,0.5,1.1,0.9,1c0.3,0,0.5-0.3,0.7-0.7
				c0.2-0.4,0.2-0.9,0.2-1.4c0-0.5-0.1-0.9-0.2-1.3c-0.2-0.4-0.5-0.7-1.1-0.9c-0.9-0.4-1.6-1.1-1.9-2c-0.4-0.9-0.6-2.1-0.6-3.5
				c0-1,0.1-1.9,0.3-2.7c0.2-0.9,0.5-1.6,0.9-2.1c0.4-0.5,1-0.8,1.6-0.9c0.9-0.1,1.5,0.3,2,1.1c0.4,0.8,0.7,2.2,0.8,4.1l-1.9,0.6
				c-0.1-0.8-0.2-1.4-0.3-1.8c-0.2-0.4-0.4-0.5-0.7-0.5c-0.2,0-0.4,0.2-0.5,0.5c-0.1,0.3-0.2,0.6-0.2,1c0,0.3,0.1,0.6,0.2,0.8
				c0.1,0.2,0.3,0.4,0.7,0.6c0.9,0.4,1.5,0.9,1.9,1.4c0.4,0.5,0.7,1.1,0.8,1.9c0.2,0.8,0.3,1.7,0.3,2.7c0,1.2-0.1,2.3-0.4,3.3
				c-0.2,1-0.6,1.8-1,2.4c-0.4,0.6-1,0.9-1.6,1c-1.1,0.2-1.9-0.3-2.4-1.5C720.5,348.8,720.2,347.3,720.2,345.5z"/>
			<path class="st3" d="M728.5,332v5l1-0.1v3.7l-1,0.1v4.7c0,0.6,0.5,0.9,0.5,1.1c0.1,0.3,0.4,0.4,0.5,0.4c0.1,0,0.4-0.2,0.7-0.4
				l0.2,3.5c-0.5,0.3-0.8,0.5-1.2,0.6c-0.5,0.1-0.8-0.1-1-0.3c-0.2-0.3-0.4-0.8-0.5-1.4c-0.1-0.6-0.2-1.7-0.2-3.2V341l-1,0.1v-3.7
				l1-0.1v-2.4L728.5,332z"/>
			<path class="st3" d="M732.9,340.9l-1.7-0.3c0.1-0.9,0.2-1.5,0.3-2c0.1-0.5,0.3-0.9,0.5-1.3c0.2-0.3,0.4-0.5,0.7-0.7
				c0.3-0.2,0.6-0.3,0.9-0.3c0.5-0.1,1,0,1.3,0.1c0.3,0.1,0.6,0.4,0.8,1c0.2,0.4,0.4,0.9,0.5,1.5c0.1,0.7,0.3,1.3,0.3,1.9v5.8
				c0,0.6-0.1,1.1-0.1,1.4c0,0.3,0,0.8,0.1,1.3l-1.7,0.2c-0.1-0.3-0.1-0.6-0.2-0.8c0-0.2,0-0.5-0.1-0.8c-0.2,0.7-0.5,1.2-0.7,1.5
				c-0.3,0.4-0.7,0.6-1.1,0.7c-0.6,0.1-1-0.2-1.3-0.9c-0.3-0.7-0.4-1.6-0.4-2.6c0-1,0.1-1.8,0.3-2.5c0.2-0.7,0.6-1.2,1.2-1.6
				c0.7-0.5,1.1-0.8,1.3-1c0.2-0.2,0.4-0.4,0.6-0.7c0-0.6,0-1-0.1-1.3c-0.1-0.2-0.3-0.3-0.5-0.3c-0.3,0-0.5,0.2-0.7,0.5
				C733.1,339.9,733,340.3,732.9,340.9z M734.5,343.4c0,0.3-0.5,0.5-0.8,0.8c-0.4,0.3-0.6,0.6-0.7,0.9c-0.1,0.3-0.2,0.6-0.2,1
				c0,0.4,0,0.7,0.1,1c0.1,0.2,0.2,0.3,0.4,0.3c0.2,0,0.4-0.2,0.6-0.5c0.2-0.3,0.3-0.6,0.4-1c0.1-0.4,0.1-0.9,0.1-1.5V343.4z"/>
			<path class="st3" d="M739.5,330.9v5l1-0.1v3.7l-1,0.1v4.6c0,0.6-0.1,0.9,0,1.1c0.1,0.3,0.1,0.4,0.3,0.4c0.1,0,0.3-0.1,0.5-0.4
				l0.1,3.4c-0.4,0.3-0.9,0.5-1.2,0.6c-0.4,0.1-0.8-0.1-1-0.3c-0.2-0.3-0.4-0.8-0.5-1.4c-0.1-0.6-0.2-1.7-0.2-3.2v-4.6l-1,0.1v-3.7
				l1-0.1v-2.4L739.5,330.9z"/>
			<path class="st3" d="M741.5,330.6l1-0.2v3.4l-1,0.2V330.6z M741.5,335.6l1-0.2v13l-1,0.2V335.6z"/>
			<path class="st3" d="M743.9,341.8c0-2,0.2-3.6,0.7-5c0.5-1.3,1.1-2.1,1.9-2.2c0.9-0.1,1.6,0.6,2.1,2c0.4,1.2,0.6,2.6,0.6,4.4
				c0,2-0.2,3.6-0.7,5c-0.5,1.3-1.1,2.1-1.9,2.2c-0.7,0.1-1.3-0.3-1.8-1.3C744.2,345.6,743.9,343.9,743.9,341.8z M745.6,341.6
				c0,1.2,0.1,2,0.2,2.5c0.2,0.5,0.4,0.8,0.6,0.7c0.3,0,0.5-0.3,0.6-0.9c0.2-0.6,0.2-1.5,0.2-2.7c0-1.1-0.1-1.9-0.2-2.5
				c-0.2-0.5-0.4-0.8-0.6-0.7c-0.3,0-0.5,0.3-0.6,0.9C745.7,339.6,745.6,340.4,745.6,341.6z"/>
			<path class="st3" d="M750.5,334.5l1-0.2v2.1c0-0.9,0.5-1.5,0.8-1.9c0.2-0.4,0.6-0.6,0.9-0.7c0.5-0.1,0.8,0.3,1,1.1
				c0.3,0.8,0.3,2,0.3,3.7v8.1l-1,0.2v-7.1c0-0.8-0.3-1.4-0.4-1.7c-0.1-0.3-0.4-0.5-0.6-0.4c-0.2,0-0.5,0.3-0.7,0.7
				c-0.1,0.5-0.3,1.3-0.3,2.5v6.2l-1,0.2V334.5z"/>
		</g>
	</g>
	<g>
		<g>
			<path class="st3" d="M710.5,363.2l1.7-0.3c0.4-0.1,0.6,0,0.8,0.2c0.2,0.2,0.4,0.6,0.5,1.1c0.1,0.5,0.2,1.1,0.3,1.7
				c0.1,0.7,0.1,1.4,0.1,2.1c0,1.2-0.1,2.1-0.2,2.8c-0.1,0.7-0.2,1.2-0.4,1.7c-0.2,0.5-0.4,0.8-0.6,1c-0.3,0.3-0.3,0.4-0.5,0.5
				l-1.7,0.4V363.2z M710.5,365.5v6.1l0.7-0.1c0.3-0.1,0.7-0.2,0.8-0.3c0.1-0.2,0.3-0.5,0.4-0.9c0.1-0.4,0.1-1.1,0.1-1.9
				c0-1.2,0-2-0.2-2.4c-0.1-0.4-0.8-0.6-1.1-0.5L710.5,365.5z"/>
			<path class="st3" d="M714.3,369.6c0-1.2,0.2-2.3,0.5-3.1c0.3-0.8,0.7-1.3,1.2-1.4c0.6-0.1,1,0.3,1.3,1.1c0.2,0.7,0.4,1.6,0.4,2.7
				c0,1.2-0.1,2.3-0.4,3.1c-0.3,0.8-0.7,1.3-1.2,1.4c-0.5,0.1-0.9-0.2-1.1-0.8C714.5,371.9,714.3,370.9,714.3,369.6z M715.4,369.3
				c0,0.7,0.1,1.2,0.2,1.6c0.1,0.3,0.2,0.5,0.4,0.4c0.2,0,0.3-0.2,0.4-0.6c0.1-0.4,0.2-0.9,0.2-1.6c0-0.7-0.1-1.2-0.2-1.5
				c-0.1-0.3-0.2-0.5-0.4-0.4c-0.2,0-0.3,0.2-0.4,0.6C715.5,368.1,715.4,368.6,715.4,369.3z"/>
			<path class="st3" d="M717.8,364.9l1.1-0.2l0.5,4.9l0.6-5.1l1-0.2l0.6,4.9l0.5-5.1l1.1-0.2L722,372l-1,0.2l-0.6-4.6l-0.6,4.9
				l-1,0.2L717.8,364.9z"/>
			<path class="st3" d="M723.5,363.9l1-0.2v1.3c0-0.6,0.2-1,0.4-1.2c0.2-0.3,0.3-0.4,0.5-0.4c0.3-0.1,0.6,0.1,0.8,0.6
				c0.2,0.5,0.3,1.2,0.3,2.2v5l-2,0.2v-4.3c0-0.5,0.4-0.8,0.3-1c-0.1-0.2,0-0.3-0.1-0.3c-0.1,0-0.1,0.2-0.2,0.5
				c-0.1,0.3,0,0.8,0,1.5v3.8l-1,0.2V363.9z"/>
			<path class="st3" d="M727.5,360v3l2-0.1v2.2l-2,0.1v2.8c0,0.3,0.4,0.5,0.4,0.7c0,0.2,0.3,0.2,0.4,0.2c0.1,0,0.3-0.1,0.4-0.3
				l0.1,2c-0.3,0.2-0.5,0.3-0.7,0.4c-0.3,0.1-0.5,0-0.6-0.2c-0.1-0.2-0.1-0.4-0.1-0.8c-0.1-0.4,0.1-1,0.1-1.9v-2.7l-1,0.1v-2.2
				l1-0.1v-1.4V360z"/>
			<path class="st3" d="M729.3,366.7c0-1.2,0.1-2.2,0.4-3c0.3-0.8,0.7-1.3,1.2-1.4c0.6-0.1,1,0.3,1.3,1.1c0.2,0.7,0.3,1.5,0.3,2.6
				c0,1.2-0.1,2.2-0.4,3c-0.3,0.8-0.7,1.3-1.2,1.4c-0.4,0.1-0.8-0.2-1.1-0.7C729.4,369,729.3,368,729.3,366.7z M730.3,366.5
				c0,0.7,0,1.2,0.2,1.5c0.1,0.3,0.2,0.5,0.4,0.4c0.2,0,0.3-0.2,0.4-0.6c0.1-0.3,0.1-0.9,0.1-1.6c0-0.7,0-1.2-0.1-1.5
				c-0.1-0.3-0.2-0.5-0.4-0.4c-0.2,0-0.3,0.2-0.4,0.6C730.4,365.3,730.3,365.8,730.3,366.5z"/>
			<path class="st3" d="M732.5,362.2l1-0.2l0.4,4.8l0.6-4.9l0.9-0.2l0.6,4.7l0.4-4.9l1-0.2l-1,7.8l-0.9,0.2l-0.5-4.5l-0.5,4.7
				l-0.9,0.2L732.5,362.2z"/>
			<path class="st3" d="M737.5,361.2l1-0.2v1.2c0-0.5,0.4-0.9,0.6-1.2c0.1-0.2,0.4-0.4,0.6-0.4c0.3-0.1,0.5,0.1,0.6,0.6
				c0.2,0.4,0.2,1.2,0.2,2.2v4.8l-2,0.2v-4.2c0-0.5,0.5-0.8,0.5-1c-0.1-0.2,0.1-0.3,0-0.2c-0.1,0-0.2,0.2-0.3,0.5
				c-0.1,0.3-0.1,0.8-0.1,1.5v3.7l-1,0.2V361.2z"/>
			<path class="st3" d="M713.3,387l0.9,0.3c0,0.5-0.1,0.8-0.1,1.1c0,0.3-0.1,0.6-0.2,1l0.4,0.7c0.1,0.1,0.1,0.2,0.2,0.3l-0.6,2
				c-0.1-0.1-0.2-0.3-0.3-0.5c-0.1-0.2-0.2-0.3-0.3-0.5c-0.2,0.4-0.4,0.7-0.6,0.9c-0.3,0.3-0.6,0.5-0.9,0.6c-0.6,0.1-1-0.1-1.2-0.6
				c-0.3-0.6-0.4-1.3-0.4-2.2c0-0.6,0.1-1.3,0.2-1.9c0.2-0.6,0.4-1.1,0.8-1.6c-0.2-0.5-0.3-0.9-0.3-1.2c-0.1-0.3-0.1-0.7-0.1-1.1
				c0-0.8,0.1-1.5,0.3-2c0.2-0.6,0.6-0.9,1-1c0.5-0.1,0.8,0.1,1,0.5c0.2,0.4,0.3,1,0.3,1.7c0,0.4,0,0.7-0.1,1.1
				c-0.1,0.4-0.1,0.7-0.2,0.9c-0.1,0.2-0.3,0.6-0.5,1.1c0.2,0.5,0.4,0.9,0.6,1.4C713.2,387.7,713.3,387.3,713.3,387z M711.6,388.1
				c-0.2,0.3-0.3,0.6-0.3,0.8c-0.1,0.2-0.1,0.5-0.1,0.7c0,0.4,0.1,0.7,0.2,0.9c0.1,0.3,0.3,0.4,0.5,0.3c0.2,0,0.4-0.3,0.7-0.8
				C712.3,389.6,712,389,711.6,388.1z M712,385.3c0.1-0.3,0.3-0.5,0.3-0.8c0.1-0.3,0.1-0.5,0.1-0.8c0-0.2,0-0.4-0.1-0.6
				c-0.1-0.1-0.2-0.2-0.3-0.2c-0.1,0-0.2,0.1-0.3,0.3c-0.1,0.2-0.1,0.4-0.1,0.7C711.7,384.3,711.8,384.7,712,385.3z"/>
			<path class="st3" d="M716.5,380.5l2.6-0.5c0.4-0.1,0.8,0.1,1,0.6c0.2,0.5,0.4,1.1,0.4,1.9c0,0.6,0,1.2-0.2,1.7
				c-0.1,0.3-0.2,0.6-0.4,0.8c0.3,0.1,0.5,0.4,0.6,0.8c0.1,0.4,0.2,1,0.2,1.7c0,0.6,0,1.1-0.1,1.6c-0.1,0.5-0.2,0.9-0.4,1.2
				c-0.1,0.2-0.3,0.3-0.5,0.5c-0.3,0.2-0.7,0.3-0.8,0.3l-2.4,0.5V380.5z M718.5,384.5l0.4-0.1c0.2,0,0.3-0.2,0.4-0.4
				c0.1-0.2,0.1-0.5,0.1-0.8c0-0.3-0.1-0.6-0.1-0.7c-0.1-0.2-0.1-0.2-0.3-0.2l-0.5,0.1V384.5z M718.5,388.8l0.5-0.1
				c0.2,0,0.3-0.2,0.4-0.4c0.1-0.2,0.1-0.5,0.1-0.9c0-0.3-0.1-0.6-0.1-0.8c-0.1-0.2-0.1-0.2-0.4-0.2l-0.5,0.1V388.8z"/>
			<path class="st3" d="M721.5,382.5v-0.2v1.3c2-0.6,0.6-1,0.7-1.2c0.1-0.2,0.4-0.4,0.6-0.4c0.2,0,0.4,0.1,0.6,0.3l-0.3,2.2
				c-0.1-0.1-0.2-0.2-0.3-0.2c-0.1,0-0.7,0.2-0.8,0.6c-0.1,0.5-0.6,1.4-0.6,2.6v2.6v0.3V382.5z"/>
			<path class="st3" d="M723.7,386c0-1.2,0.1-2.2,0.4-3.1c0.3-0.8,0.7-1.3,1.2-1.4c0.6-0.1,1,0.2,1.3,1.1c0.2,0.7,0.3,1.6,0.3,2.6
				c0,1.2-0.1,2.2-0.4,3.1c-0.3,0.8-0.7,1.3-1.2,1.4c-0.5,0.1-0.8-0.1-1.1-0.7C723.9,388.3,723.7,387.3,723.7,386z M724.8,385.7
				c0,0.7,0.1,1.2,0.2,1.5c0.1,0.3,0.2,0.4,0.4,0.4c0.2,0,0.3-0.2,0.4-0.6c0.1-0.4,0.2-0.9,0.2-1.6c0-0.7-0.1-1.2-0.2-1.5
				c-0.1-0.3-0.2-0.4-0.4-0.4c-0.2,0-0.3,0.2-0.4,0.6C724.9,384.5,724.8,385,724.8,385.7z"/>
			<path class="st3" d="M727.4,385.1c0-1.2,0.1-2.2,0.4-3c0.3-0.8,0.7-1.3,1.2-1.4c0.6-0.1,1,0.2,1.3,1.1c0.2,0.7,0.3,1.5,0.3,2.6
				c0,1.2-0.1,2.2-0.4,3c-0.3,0.8-0.7,1.3-1.2,1.4c-0.4,0.1-0.8-0.1-1.1-0.7C727.5,387.4,727.4,386.4,727.4,385.1z M728.4,384.9
				c0,0.7,0.1,1.2,0.2,1.5c0.1,0.3,0.2,0.4,0.4,0.4c0.2,0,0.3-0.2,0.4-0.6c0.1-0.3,0.1-0.9,0.1-1.6c0-0.7,0-1.2-0.1-1.5
				c-0.1-0.3-0.2-0.4-0.4-0.4c-0.2,0-0.3,0.2-0.4,0.6C728.5,383.7,728.4,384.2,728.4,384.9z"/>
			<path class="st3" d="M731.5,377.4l1-0.2v5.5l0.6-2.7l1.2-0.3l-1,2.9l1,4.8l-1.2,0.3l-0.4-3l-0.2,1.2v2l-1,0.3V377.4z"/>
			<path class="st3" d="M734.5,376.7l1-0.2V387l-1,0.2V376.7z"/>
			<path class="st3" d="M736.1,379.3l1.1-0.2l0.6,5l0.5-5.2l1-0.2l-1.1,8.4c-0.1,1-0.2,1.6-0.4,2c-0.2,0.5-0.5,0.8-0.8,0.9
				c-0.1,0-0.4,0-0.7,0l-0.1-2c0.1,0.1,0.3,0.1,0.5,0.1c0.1,0,0.2-0.1,0.3-0.3c0.1-0.2,0.1-0.5,0.2-0.9L736.1,379.3z"/>
			<path class="st3" d="M738.5,378.5l2-0.2v1.2c0-0.5,0.3-0.9,0.5-1.2c0.1-0.2,0.3-0.4,0.5-0.4c0.3-0.1,0.1,0.1,0.2,0.6
				c0.2,0.4-0.2,1.2-0.2,2.2v4.8v0.2v-4.2c0-0.5-0.1-0.8-0.2-1c-0.1-0.2-0.2-0.3-0.3-0.2c-0.1,0-0.3,0.2-0.4,0.5
				c-0.1,0.3-0.2,0.8-0.2,1.5v3.6l-2,0.2V378.5z"/>
		</g>
	</g>
	<g>
		<g>
			<path class="st3" d="M668.5,415.3l1-0.3v4.9c0,0.5,0.1,1,0,1.4c-0.1,0.5-0.1,0.9-0.3,1.2c-0.1,0.4-0.3,0.6-0.4,0.8
				c-0.2,0.2-0.5,0.4-0.8,0.5c-0.2,0.1-0.4,0.1-0.6,0.1c-0.2,0-0.4-0.1-0.5-0.2c-0.1-0.1-0.3-0.3-0.4-0.6c-0.1-0.3-0.6-0.6-0.6-0.9
				c-0.1-0.5-0.5-1-0.5-1.4v-4.9l1-0.3v5c0,0.5,0.5,0.8,0.6,1c0.1,0.2,0.5,0.3,0.7,0.2c0.2-0.1,0.4-0.2,0.5-0.5
				c0.1-0.3,0.2-0.6,0.2-1.1V415.3z"/>
			<path class="st3" d="M669.5,417l2-0.3v1c0-0.4,0.2-0.8,0.3-1c0.1-0.2,0.3-0.3,0.5-0.4c0.3-0.1,0.7,0,0.8,0.4
				c0.2,0.3,0.4,0.9,0.4,1.7v3.8l-1,0.3v-3.3c0-0.4-0.2-0.6-0.3-0.8c-0.1-0.1-0.2-0.2-0.4-0.2c-0.1,0-0.2,0.2-0.3,0.4
				c-0.1,0.2-0.1,0.6-0.1,1.2v2.8l-2,0.3V417z"/>
			<path class="st3" d="M676.5,413.1v8.1l-1,0.3v-0.9c0,0.4-0.3,0.7-0.4,0.8c-0.1,0.2-0.3,0.3-0.5,0.4c-0.3,0.1-0.6-0.1-0.8-0.7
				c-0.2-0.6-0.3-1.3-0.3-2.1c0-1,0.1-1.8,0.3-2.3c0.2-0.6,0.5-0.9,0.8-1c0.2,0,0.4,0,0.5,0.1c0.1,0.1,0.4,0.2,0.4,0.4v-2.8
				L676.5,413.1z M675.4,418.5c0-0.5,0-0.8-0.1-1c-0.1-0.2-0.2-0.3-0.3-0.2c-0.1,0-0.2,0.2-0.3,0.4c-0.1,0.2-0.1,0.6-0.1,1.1
				c0,0.5,0,0.8,0.1,1c0.1,0.2,0.2,0.3,0.3,0.2c0.1,0,0.2-0.2,0.3-0.4C675.3,419.4,675.4,419,675.4,418.5z"/>
			<path class="st3" d="M679.5,417.9l-1.8,0.6c0,0.4,0.1,0.6,0.2,0.8c0.1,0.2,0.2,0.3,0.4,0.3c0.1,0,0.2-0.1,0.3-0.2
				c0.1-0.1,0.1-0.2,0.2-0.4l0.9-0.1c-0.1,0.6-0.3,1.1-0.5,1.4c-0.2,0.3-0.5,0.5-0.9,0.6c-0.3,0.1-0.6,0.1-0.8-0.1
				c-0.2-0.2-0.3-0.5-0.5-0.9c-0.1-0.4-0.2-1-0.2-1.6c0-0.9,0.1-1.7,0.4-2.3c0.3-0.6,0.6-1,1-1.1c0.4-0.1,0.6-0.1,0.8,0.1
				c0.2,0.2,0.3,0.5,0.4,1c0.1,0.4,0.1,1.1,0.1,1.8V417.9z M678.7,417.1c0-0.4-0.1-0.7-0.1-0.9c-0.1-0.2-0.2-0.2-0.3-0.2
				c-0.2,0-0.3,0.2-0.4,0.5c-0.1,0.2-0.1,0.5-0.1,0.8L678.7,417.1z"/>
			<path class="st3" d="M679.5,414.3l1-0.2v0.9c0-0.4,0.4-0.7,0.5-0.9c0.1-0.2,0.3-0.3,0.5-0.3c0.1,0,0.4,0,0.5,0.2l-0.3,1.7
				c-0.1-0.1-0.2-0.1-0.2-0.1c-0.1,0-0.5,0.2-0.6,0.4c-0.1,0.4-0.4,1-0.4,1.9v1.9l-1,0.3V414.3z"/>
			<path class="st3" d="M682.5,421.6v-8v-0.2v0.8c0-0.4,0.6-0.7,0.7-0.8c0.1-0.2,0.5-0.3,0.7-0.4c0.3-0.1,0.7,0.1,0.8,0.7
				c0.2,0.5,0.3,1.2,0.3,2.1c0,1-0.1,1.7-0.3,2.3c-0.2,0.6-0.4,0.9-0.7,1c-0.1,0-0.7,0-0.8-0.1c-0.1-0.1-0.8-0.2-0.8-0.4v2.7V421.6z
				 M683.4,416.3c0,0.5,0,0.8,0.1,1c0.1,0.2,0.2,0.3,0.3,0.2c0.1,0,0.2-0.2,0.3-0.4c0.1-0.2,0.1-0.6,0.1-1.1c0-0.5,0-0.8-0.1-1
				c-0.1-0.2-0.2-0.3-0.3-0.2c-0.1,0-0.2,0.2-0.3,0.4C683.4,415.4,683.4,415.8,683.4,416.3z"/>
			<path class="st3" d="M686.4,414.4l-0.9,0c0-0.4,0.1-0.7,0.1-0.9c0.1-0.2,0.2-0.4,0.3-0.6c0.1-0.1,0.2-0.3,0.3-0.4
				c0.1-0.1,0.3-0.2,0.5-0.2c0.3-0.1,0.5-0.1,0.7-0.1c0.2,0,0.3,0.1,0.4,0.3c0.1,0.1-0.1,0.3-0.1,0.6c0,0.3-0.2,0.6-0.2,0.8v2.5
				c0,0.3,0.3,0.5,0.3,0.6s0.2,0.3,0.2,0.6l-0.8,0.3c0-0.1,0-0.2,0-0.3c0-0.1,0-0.2,0-0.4c-0.1,0.3-0.2,0.5-0.3,0.7
				c-0.2,0.2-0.3,0.3-0.6,0.4c-0.3,0.1-0.5,0-0.6-0.3c-0.1-0.3-0.2-0.6-0.2-1.1c0-0.4,0.1-0.8,0.2-1.1c0.1-0.3,0.3-0.6,0.6-0.8
				c0.3-0.3,0.6-0.4,0.7-0.5c0.1-0.1,0.2-0.2,0.3-0.4c0-0.3,0-0.4-0.1-0.5s-0.1-0.1-0.2-0.1c-0.1,0-0.3,0.1-0.3,0.3
				C686.5,413.9,686.4,414.1,686.4,414.4z M687.2,415.3c-0.1,0.1-0.3,0.3-0.4,0.4c-0.2,0.2-0.3,0.3-0.4,0.5
				c-0.1,0.1-0.1,0.3-0.1,0.4c0,0.2,0,0.3,0.1,0.4c0.1,0.1,0.1,0.1,0.2,0.1c0.1,0,0.2-0.1,0.3-0.3c0.1-0.1,0.1-0.3,0.2-0.5
				c0-0.2,0.1-0.4,0.1-0.7V415.3z"/>
			<path class="st3" d="M688.4,416l0.9-0.5c0,0.2,0.1,0.4,0.2,0.5c0.1,0.1,0.2,0.1,0.3,0.1c0.1,0,0.2-0.1,0.3-0.3
				c0.1-0.1,0.1-0.2,0.1-0.4c0-0.2,0-0.3-0.1-0.3c0,0-0.2-0.1-0.4-0.1c-0.3,0-0.5-0.1-0.7-0.2c-0.1-0.1-0.2-0.2-0.3-0.5
				c-0.1-0.2-0.1-0.5-0.1-0.9c0-0.4,0-0.7,0.1-1c0.1-0.3,0.2-0.5,0.4-0.7c0.2-0.2,0.4-0.3,0.6-0.4c0.3-0.1,0.5-0.1,0.6,0
				c0.1,0.1,0.2,0.2,0.3,0.4c0.1,0.2,0.2,0.5,0.2,0.8l-0.8,0.4c0-0.2-0.1-0.3-0.1-0.4c-0.1-0.1-0.2-0.1-0.3-0.1
				c-0.1,0-0.2,0.1-0.2,0.2c0,0.1-0.1,0.2-0.1,0.3c0,0.1,0,0.2,0.1,0.3c0.1,0.1,0.2,0.1,0.4,0.1c0.3,0,0.5,0,0.7,0.1
				c0.1,0.1,0.3,0.3,0.3,0.5c0.1,0.2,0.1,0.5,0.1,0.9c0,0.3,0,0.7-0.1,1c-0.1,0.3-0.2,0.6-0.4,0.8c-0.2,0.2-0.4,0.4-0.7,0.5
				c-0.4,0.1-0.7,0.1-0.9-0.2C688.6,417,688.5,416.6,688.4,416z"/>
			<path class="st3" d="M691.2,415.2l0.9-0.5c0,0.2,0.1,0.4,0.2,0.5c0.1,0.1,0.2,0.1,0.3,0.1c0.1,0,0.2-0.1,0.3-0.3
				c0.1-0.1,0.1-0.2,0.1-0.4c0-0.2,0-0.3-0.1-0.3c0,0-0.2-0.1-0.4-0.1c-0.3,0-0.5-0.1-0.6-0.2c-0.1-0.1-0.2-0.2-0.3-0.5
				c-0.1-0.2-0.1-0.5-0.1-0.9c0-0.4,0-0.7,0.1-1c0.1-0.3,0.2-0.5,0.4-0.7c0.2-0.2,0.4-0.3,0.6-0.4c0.3-0.1,0.5-0.1,0.6,0
				c0.1,0.1,0.2,0.2,0.3,0.4c0.1,0.2,0.2,0.5,0.2,0.8l-0.8,0.4c0-0.2-0.1-0.3-0.1-0.4c-0.1-0.1-0.2-0.1-0.3-0.1
				c-0.1,0-0.2,0.1-0.2,0.2c0,0.1-0.1,0.2-0.1,0.3c0,0.1,0,0.2,0.1,0.3c0.1,0.1,0.2,0.1,0.4,0.1c0.3,0,0.5,0,0.7,0.1
				c0.1,0.1,0.3,0.3,0.3,0.5c0.1,0.2,0.1,0.5,0.1,0.8c0,0.3,0,0.6-0.1,1c-0.1,0.3-0.2,0.6-0.4,0.8c-0.2,0.2-0.4,0.4-0.7,0.5
				c-0.4,0.1-0.7,0.1-0.9-0.2C691.4,416.1,691.3,415.8,691.2,415.2z"/>
			<path class="st3" d="M697.5,407.5v2.1v-0.1v1.6v0.1v2c0,0.2-0.4,0.4-0.4,0.5c0,0.1-0.2,0.2-0.1,0.1c0.1,0,0-0.1,0.2-0.2l0,1.4
				c-0.2,0.2-0.4,0.3-0.6,0.3c-0.2,0.1-0.4,0-0.5-0.1c-0.1-0.1,0.2-0.3,0.2-0.6c0-0.3,0.3-0.7,0.3-1.3v-2v0.1V410v-0.1v-1
				L697.5,407.5z"/>
			<path class="st3" d="M697.4,412.2c0-0.8,0.1-1.6,0.3-2.2c0.2-0.6,0.5-1,0.9-1.1c0.4-0.1,0.8,0.1,1,0.7c0.2,0.5,0.3,1.1,0.3,1.8
				c0,0.8-0.1,1.6-0.3,2.2c-0.2,0.6-0.5,1-0.9,1.1c-0.4,0.1-0.6,0-0.9-0.4C697.5,413.8,697.4,413.1,697.4,412.2z M698.2,412
				c0,0.5,0,0.8,0.1,1.1c0.1,0.2,0.2,0.3,0.3,0.3c0.1,0,0.2-0.2,0.3-0.4c0.1-0.3,0.1-0.6,0.1-1.1c0-0.5,0-0.8-0.1-1
				c-0.1-0.2-0.2-0.3-0.3-0.3c-0.1,0-0.2,0.2-0.3,0.4C698.3,411.1,698.2,411.5,698.2,412z"/>
			<path class="st3" d="M703.5,405.6l1-0.3v4.5c0,0.4,0.1,0.9,0,1.3c-0.1,0.4-0.1,0.8-0.2,1.1c-0.1,0.3-0.2,0.6-0.3,0.7
				c-0.2,0.2-0.4,0.4-0.6,0.4c-0.1,0-0.3,0.1-0.5,0.1c-0.2,0-0.3-0.1-0.4-0.2c-0.1-0.1-0.2-0.3-0.3-0.6c-0.1-0.3,0.2-0.5,0.1-0.8
				c-0.1-0.5,0.3-0.9,0.3-1.2v-4.5v-0.3v4.6c0,0.4,0.2,0.7,0.3,0.9c0.1,0.2,0.3,0.3,0.4,0.2c0.2,0,0.2-0.2,0.3-0.4
				c0.1-0.3,0-0.6,0-1V405.6z"/>
			<path class="st3" d="M705.5,414.7v-7.5V407v0.8c1-0.4,0.5-0.6,0.5-0.8c0.1-0.2,0.4-0.3,0.5-0.3c0.3-0.1,0.6,0.1,0.7,0.6
				c0.2,0.5,0.3,1.2,0.3,2c0,0.9-0.1,1.6-0.2,2.1c-0.2,0.5-0.4,0.8-0.6,0.9c-0.1,0,0,0-0.1-0.1s-0.1-0.2-0.1-0.4v2.6L705.5,414.7z
				 M706.1,409.7c0,0.4,0,0.7,0.1,0.9c0.1,0.2,0.2,0.3,0.3,0.2c0.1,0,0.2-0.2,0.2-0.4c0.1-0.2,0.1-0.6,0.1-1c0-0.4,0-0.7-0.1-0.9
				c-0.1-0.2-0.1-0.3-0.2-0.2c-0.1,0-0.2,0.2-0.3,0.4C706.1,408.9,706.1,409.2,706.1,409.7z"/>
			<path class="st3" d="M708.5,404.1v2l2-0.1v1.5l-2,0.1v1.9c0,0.2,0.2,0.4,0.3,0.4c0,0.1,0.2,0.2,0.3,0.1c0.1,0,0.2-0.1,0.3-0.2
				l0.1,1.4c-0.2,0.2-0.4,0.3-0.5,0.3c-0.2,0.1-0.3,0-0.4-0.1c-0.1-0.1-0.5-0.3-0.5-0.5c0-0.3-0.4-0.7-0.4-1.3v-1.9v0.1v-1.5v-0.1
				v-1L708.5,404.1z"/>
			<path class="st3" d="M709.7,408.7c0-0.8,0.1-1.5,0.3-2.1c0.2-0.6,0.5-0.9,0.9-1c0.4-0.1,0.7,0.1,0.9,0.7c0.2,0.4,0.3,1,0.3,1.8
				c0,0.8-0.1,1.5-0.3,2.1c-0.2,0.6-0.5,0.9-0.9,1c-0.3,0.1-0.6,0-0.8-0.4C709.8,410.2,709.7,409.5,709.7,408.7z M710.5,408.4
				c0,0.5,0,0.8,0.1,1c0.1,0.2,0.2,0.3,0.3,0.3c0.1,0,0.2-0.2,0.3-0.4c0.1-0.2,0.1-0.6,0.1-1.1c0-0.5,0-0.8-0.1-1
				c-0.1-0.2-0.2-0.3-0.3-0.3c-0.1,0-0.2,0.2-0.3,0.4C710.5,407.6,710.5,407.9,710.5,408.4z"/>
			<path class="st3" d="M712.2,405.3l0.8-0.2l0.3,3.2l0.4-3.4l0.7-0.2l0.4,3.2l0.3-3.4l0.7-0.2l-0.7,5.5l-0.7,0.2l-0.4-3l-0.4,3.3
				l-0.7,0.2L712.2,405.3z"/>
			<path class="st3" d="M716.5,404.2l1-0.2v0.9c0-0.4-0.1-0.7,0-0.8c0.1-0.2,0.1-0.3,0.2-0.3c0.2-0.1,0.4,0.1,0.6,0.4
				c0.1,0.3,0.2,0.8,0.2,1.5v3.3l-1,0.2v-2.9c0-0.3-0.1-0.6-0.1-0.7c0-0.1-0.1-0.2-0.2-0.1c-0.1,0,0.1,0.1,0.1,0.3
				c-0.1,0.2,0.2,0.5,0.2,1v2.5l-1,0.2V404.2z"/>
			<path class="st3" d="M722.1,404.2l0.6,0.2c0,0.3-0.1,0.5-0.1,0.7c0,0.2-0.1,0.4-0.1,0.6l0.3,0.4c0,0,0.1,0.1,0.1,0.2l-0.4,1.3
				c-0.1-0.1-0.1-0.2-0.2-0.3c-0.1-0.1-0.1-0.2-0.2-0.3c-0.1,0.3-0.3,0.5-0.4,0.6c-0.2,0.2-0.4,0.3-0.6,0.4c-0.4,0.1-0.6,0-0.8-0.4
				c-0.2-0.3-0.3-0.8-0.3-1.4c0-0.4,0.1-0.8,0.2-1.2c0.1-0.4,0.3-0.7,0.5-1.1c-0.1-0.3-0.2-0.5-0.2-0.8c0-0.2-0.1-0.5-0.1-0.7
				c0-0.5,0.1-0.9,0.2-1.3c0.1-0.4,0.4-0.6,0.7-0.7c0.3-0.1,0.5,0,0.7,0.3c0.1,0.3,0.2,0.6,0.2,1.1c0,0.2,0,0.5-0.1,0.7
				c0,0.2-0.1,0.4-0.2,0.6c-0.1,0.2-0.2,0.4-0.3,0.7c0.1,0.3,0.3,0.6,0.4,0.8C722.1,404.6,722.1,404.4,722.1,404.2z M721,405
				c-0.1,0.2-0.2,0.4-0.2,0.6c0,0.1-0.1,0.3-0.1,0.4c0,0.2,0,0.4,0.1,0.6c0.1,0.2,0.2,0.2,0.3,0.2c0.1,0,0.3-0.2,0.5-0.5
				C721.5,405.9,721.3,405.5,721,405z M721.3,403.2c0.1-0.2,0.2-0.3,0.2-0.5c0.1-0.2,0.1-0.3,0.1-0.5c0-0.2,0-0.3-0.1-0.4
				c0-0.1-0.1-0.1-0.2-0.1c-0.1,0-0.1,0.1-0.2,0.2c0,0.1-0.1,0.3-0.1,0.4C721.1,402.5,721.1,402.8,721.3,403.2z"/>
			<path class="st3" d="M726.9,405.2c0.1,0.2,0.2,0.3,0.2,0.3c0,0.1,0.1,0.1,0.2,0.2l-0.2,1.3c-0.1-0.1-0.2-0.3-0.3-0.4
				c-0.1-0.2-0.2-0.3-0.2-0.4c-0.2,0.3-0.4,0.4-0.7,0.5c-0.4,0.1-0.7-0.1-0.9-0.6c-0.3-0.6-0.4-1.5-0.4-2.7c0-1.2,0.1-2.1,0.4-2.8
				c0.2-0.7,0.6-1.1,1-1.2c0.4-0.1,0.8,0.1,1,0.7c0.2,0.6,0.4,1.4,0.4,2.6C727.2,403.6,727.1,404.5,726.9,405.2z M726.3,404.2
				c0.1-0.3,0.1-0.8,0.1-1.4c0-0.7,0-1.2-0.1-1.5c-0.1-0.3-0.2-0.4-0.4-0.3c-0.2,0-0.3,0.2-0.4,0.6c-0.1,0.3-0.2,0.8-0.2,1.5
				c0,0.8,0,1.3,0.1,1.6c0.1,0.3,0.2,0.4,0.4,0.3c0.1,0,0.1,0,0.2-0.1c-0.1-0.2-0.2-0.3-0.3-0.4l0.1-0.8c0.1,0,0.1,0,0.2,0.1
				c0,0,0.1,0.2,0.2,0.3C726.2,404.2,726.3,404.2,726.3,404.2z"/>
			<path class="st3" d="M728.5,405.4v0.2v-0.8c0,0.4,0,0.6-0.1,0.8c-0.1,0.2-0.1,0.3-0.3,0.3c-0.2,0.1-0.3-0.1-0.5-0.3
				c-0.1-0.3-0.2-0.8-0.2-1.4v-3.2v-0.2v2.8c0,0.3,0.4,0.5,0.5,0.7c0,0.1,0.3,0.2,0.4,0.1c0.1,0,0.1-0.1,0.1-0.3c0.1-0.2,0-0.5,0-1
				v-2.4v-0.2V405.4z"/>
			<path class="st3" d="M732.5,402.7l-1.6,0.4c0,0.3-0.1,0.5,0,0.7c0.1,0.2,0.1,0.3,0.2,0.2c0.1,0,0.1-0.1,0.2-0.2
				c0-0.1,0.1-0.2,0.1-0.4l0.7,0c-0.1,0.5-0.2,0.9-0.4,1.2c-0.2,0.3-0.4,0.4-0.6,0.5c-0.2,0.1-0.4,0-0.6-0.1
				c-0.1-0.1-0.3-0.4-0.4-0.8c-0.1-0.4-0.1-0.8-0.1-1.4c0-0.8,0.1-1.4,0.3-2c0.2-0.5,0.4-0.9,0.8-0.9c0.3-0.1,0.5,0,0.6,0.1
				c0.2,0.2,0.5,0.5,0.6,0.8c0.1,0.4,0.4,0.9,0.4,1.6V402.7z M731.3,401.9c0-0.4-0.1-0.6-0.1-0.8c-0.1-0.1-0.1-0.2-0.2-0.2
				c-0.1,0-0.2,0.2-0.3,0.4c0,0.2-0.1,0.4-0.1,0.7L731.3,401.9z"/>
			<path class="st3" d="M734.5,402l-1.5,0.4c0,0.3,0,0.5,0.1,0.7c0.1,0.2,0.1,0.3,0.2,0.2c0.1,0,0.1-0.1,0.2-0.2
				c0-0.1,0.1-0.2,0.1-0.3l0.7,0c-0.1,0.5-0.2,0.9-0.4,1.2c-0.1,0.3-0.4,0.4-0.6,0.5c-0.2,0.1-0.4,0-0.6-0.1
				c-0.1-0.1-0.3-0.4-0.3-0.8c-0.1-0.4-0.1-0.8-0.1-1.4c0-0.8,0.1-1.4,0.3-2c0.2-0.5,0.4-0.8,0.8-0.9c0.3-0.1,0.5,0,0.6,0.1
				c0.2,0.2,0.3,0.5,0.4,0.8c0.1,0.4,0.2,0.9,0.2,1.6V402z M733.7,401.3c0-0.4,0-0.6-0.1-0.8c-0.1-0.1-0.1-0.2-0.2-0.2
				c-0.1,0-0.2,0.2-0.3,0.4c0,0.2-0.1,0.4-0.1,0.7L733.7,401.3z"/>
			<path class="st3" d="M734.5,398.9l1-0.2v0.8c0-0.4,0.1-0.6,0.2-0.8c0.1-0.2,0.2-0.3,0.3-0.3c0.2-0.1,0.3,0.1,0.4,0.3
				c0.1,0.3,0.1,0.7,0.1,1.4v3.1l-1,0.2v-2.7c0-0.3,0.2-0.5,0.1-0.6c0-0.1,0-0.2-0.1-0.1c-0.1,0,0,0.1-0.1,0.3c-0.1,0.2,0,0.5,0,1
				v2.4l-1,0.2V398.9z"/>
			<path class="st3" d="M736.9,401.9l0.7-0.4c0,0.2,0.1,0.4,0.1,0.4c0,0.1,0.1,0.1,0.2,0.1c0.1,0,0.2-0.1,0.2-0.2
				c0-0.1,0.1-0.2,0.1-0.3c0-0.1,0-0.2-0.1-0.3c0,0-0.1-0.1-0.3-0.1c-0.2,0-0.4-0.1-0.5-0.2c-0.1-0.1-0.2-0.2-0.2-0.4
				c-0.1-0.2-0.1-0.5-0.1-0.8c0-0.3,0-0.6,0.1-0.9c0.1-0.3,0.2-0.5,0.3-0.6c0.1-0.1,0.3-0.3,0.5-0.3c0.2-0.1,0.4-0.1,0.5,0
				c0.1,0.1,0.2,0.2,0.3,0.3c0.1,0.2,0.1,0.4,0.2,0.7l-0.6,0.4c0-0.2,0-0.3-0.1-0.3c-0.1-0.1-0.1-0.1-0.2-0.1
				c-0.1,0-0.1,0.1-0.2,0.2c0,0.1-0.1,0.2-0.1,0.3c0,0.1,0,0.2,0.1,0.3c0,0,0.1,0.1,0.3,0.1c0.2,0,0.4,0.1,0.5,0.2
				c0.1,0.1,0.2,0.2,0.3,0.5c0.1,0.2,0.1,0.5,0.1,0.7c0,0.3,0,0.6-0.1,0.9c-0.1,0.3-0.2,0.5-0.3,0.7c-0.1,0.2-0.3,0.3-0.5,0.4
				c-0.3,0.1-0.6,0-0.7-0.2C737,402.7,736.9,402.3,736.9,401.9z"/>
		</g>
	</g>
	<g>
		<g>
			<path class="st3" d="M678.2,386.4l2.5,1.3c-0.2,1.6-0.4,3-0.8,4.2c-0.4,1.1-0.8,2-1.3,2.7c-0.5,0.7-1.2,1.1-2,1.2
				c-1,0.2-1.8,0-2.5-0.5c-0.6-0.5-1.2-1.6-1.6-3.2c-0.5-1.6-0.7-3.7-0.7-6.3c0-3.5,0.4-6.3,1.2-8.3c0.8-2,2-3.2,3.4-3.4
				c1.2-0.2,2.1,0.2,2.7,1.1c0.7,1,1.1,2.5,1.5,4.7l-2.5,1.7c-0.1-0.6-0.2-1.1-0.3-1.4c-0.2-0.5-0.4-0.8-0.6-1
				c-0.2-0.2-0.5-0.3-0.8-0.3c-0.6,0.1-1.1,0.8-1.5,2.1c-0.3,0.9-0.4,2.3-0.4,4.2c0,2.3,0.2,3.9,0.5,4.7c0.3,0.8,0.7,1.2,1.3,1.1
				c0.5-0.1,1-0.5,1.2-1.3C677.9,388.8,678.1,387.8,678.2,386.4z"/>
		</g>
	</g>
	<g>
		<g>
			<path class="st3" d="M693.5,371.9l7-1.3v4.5l-3,0.8v3.3l3-0.8v4.3l-3,0.8v4.1l3-0.9v4.7l-7,1.4V371.9z"/>
		</g>
	</g>
</g>
<g id="Layer_3">
</g>
</svg>
